<svg width="60" height="60" viewBox="0 0 60 60" fill="none"
  xmlns="http://www.w3.org/2000/svg">
  <rect width="60" height="60" fill="#e1ecff"/>
  <path fill-rule="evenodd" clip-rule="evenodd" d="M30 27.7C31.83 27.7 33.585 26.9731 34.879 25.6791C36.173 24.3851 36.9 22.63 36.9 20.8C36.9 18.97 36.173 17.215 34.879 15.921C33.585 14.627 31.83 13.9 30 13.9C28.17 13.9 26.415 14.627 25.121 15.921C23.827 17.215 23.1 18.97 23.1 20.8C23.1 22.63 23.827 24.3851 25.121 25.6791C26.415 26.9731 28.17 27.7 30 27.7ZM13.9 48.4C13.9 46.2857 14.3164 44.1922 15.1255 42.2388C15.9346 40.2855 17.1206 38.5106 18.6156 37.0156C20.1106 35.5206 21.8854 34.3347 23.8388 33.5256C25.7921 32.7165 27.8857 32.3 30 32.3C32.1143 32.3 34.2079 32.7165 36.1612 33.5256C38.1145 34.3347 39.8894 35.5206 41.3844 37.0156C42.8794 38.5106 44.0654 40.2855 44.8745 42.2388C45.6836 44.1922 46.1 46.2857 46.1 48.4H13.9Z" fill="#599cff"/>
</svg>
