<svg width="36" height="34" viewBox="0 0 36 34" fill="none" xmlns="http://www.w3.org/2000/svg">
<rect width="36" height="34" rx="17" fill="#EE0033"/>
<g clip-path="url(#clip0_6779_144178)" filter="url(#filter0_d_6779_144178)">
<path d="M14.9989 20.7509L17.9989 23.7509M17.9989 23.7509L20.9989 20.7509M17.9989 23.7509V17.0009M24.6589 21.5684C25.311 21.1099 25.7999 20.4555 26.0549 19.7003C26.3098 18.945 26.3175 18.1282 26.0767 17.3683C25.836 16.6084 25.3593 15.945 24.716 15.4743C24.0726 15.0037 23.296 14.7503 22.4989 14.7509H21.5539C21.3283 13.8718 20.9063 13.0554 20.3195 12.363C19.7327 11.6706 18.9965 11.1204 18.1663 10.7537C17.3361 10.387 16.4335 10.2134 15.5266 10.2461C14.6196 10.2787 13.7318 10.5166 12.9301 10.942C12.1284 11.3674 11.4336 11.9691 10.8981 12.7018C10.3625 13.4345 10.0002 14.2792 9.83836 15.1722C9.67651 16.0653 9.71937 16.9834 9.9637 17.8574C10.208 18.7315 10.6475 19.5388 11.2489 20.2184" stroke="white" stroke-width="2" stroke-linecap="round" stroke-linejoin="round"/>
</g>
<defs>
<filter id="filter0_d_6779_144178" x="5" y="8" width="26" height="26" filterUnits="userSpaceOnUse" color-interpolation-filters="sRGB">
<feFlood flood-opacity="0" result="BackgroundImageFix"/>
<feColorMatrix in="SourceAlpha" type="matrix" values="0 0 0 0 0 0 0 0 0 0 0 0 0 0 0 0 0 0 127 0" result="hardAlpha"/>
<feOffset dy="4"/>
<feGaussianBlur stdDeviation="2"/>
<feComposite in2="hardAlpha" operator="out"/>
<feColorMatrix type="matrix" values="0 0 0 0 0 0 0 0 0 0 0 0 0 0 0 0 0 0 0.25 0"/>
<feBlend mode="normal" in2="BackgroundImageFix" result="effect1_dropShadow_6779_144178"/>
<feBlend mode="normal" in="SourceGraphic" in2="effect1_dropShadow_6779_144178" result="shape"/>
</filter>
<clipPath id="clip0_6779_144178">
<rect width="18" height="18" fill="white" transform="translate(9 8)"/>
</clipPath>
</defs>
</svg>
