<svg width="34" height="34" viewBox="0 0 34 34" fill="none" xmlns="http://www.w3.org/2000/svg">
<rect width="34" height="34" rx="17" fill="#EE0033"/>
<g clip-path="url(#clip0_6779_144182)">
<path d="M19.9962 19.9982L16.9962 16.9982M16.9962 16.9982L13.9962 19.9982M16.9962 16.9982V23.7482M23.2887 21.7907C24.0202 21.3919 24.5981 20.7608 24.9311 19.9971C25.2641 19.2334 25.3333 18.3806 25.1278 17.5732C24.9223 16.7658 24.4538 16.0498 23.7962 15.5382C23.1386 15.0267 22.3293 14.7487 21.4962 14.7482H20.5512C20.3242 13.8701 19.9011 13.0549 19.3136 12.3639C18.7262 11.6729 17.9898 11.124 17.1598 10.7586C16.3297 10.3932 15.4276 10.2207 14.5213 10.2541C13.6149 10.2875 12.728 10.5259 11.9271 10.9514C11.1262 11.3769 10.4321 11.9785 9.89715 12.7108C9.36219 13.4432 9.0002 14.2873 8.83842 15.1797C8.67664 16.0721 8.71926 16.9896 8.9631 17.8631C9.20693 18.7366 9.64562 19.5436 10.2462 20.2232" stroke="#F5F5F5" stroke-width="1.5" stroke-linecap="round" stroke-linejoin="round"/>
</g>
<defs>
<clipPath id="clip0_6779_144182">
<rect width="18" height="18" fill="white" transform="translate(8 8)"/>
</clipPath>
</defs>
</svg>
