<svg width="60" height="61" viewBox="0 0 60 61" fill="none" xmlns="http://www.w3.org/2000/svg">
<circle cx="30" cy="30.5" r="30" fill="url(#paint0_linear_859_25249)"/>
<path d="M29.9999 38.6247C29.5064 38.6247 29.0972 38.2155 29.0972 37.722V36.5183C29.0972 36.0247 29.5064 35.6155 29.9999 35.6155C30.4935 35.6155 30.9027 36.0247 30.9027 36.5183V37.722C30.9027 38.2155 30.4935 38.6247 29.9999 38.6247Z" fill="white"/>
<path d="M29.9999 43.4396C29.5064 43.4396 29.0972 43.0303 29.0972 42.5368V41.3331C29.0972 40.8396 29.5064 40.4303 29.9999 40.4303C30.4935 40.4303 30.9027 40.8396 30.9027 41.3331V42.5368C30.9027 43.0303 30.4935 43.4396 29.9999 43.4396Z" fill="white"/>
<path d="M17.963 43.4396C17.8908 43.4396 17.8185 43.4276 17.7463 43.4155C17.2648 43.2952 16.9639 42.8016 17.0843 42.3202L18.288 37.5054C18.4084 37.0239 18.8898 36.7229 19.3834 36.8433C19.8648 36.9637 20.1658 37.4572 20.0454 37.9387L18.8417 42.7535C18.7334 43.1628 18.3722 43.4396 17.963 43.4396Z" fill="white"/>
<path d="M41.7393 43.1418C41.33 43.1418 40.9689 42.865 40.8606 42.4557L39.6569 37.6409C39.5365 37.1594 39.8254 36.6659 40.3189 36.5456C40.8004 36.4252 41.2939 36.7141 41.4143 37.2076L42.618 42.0224C42.7384 42.5039 42.4495 42.9974 41.956 43.1178C41.8837 43.1298 41.8115 43.1418 41.7393 43.1418Z" fill="white"/>
<path d="M38.5944 22.435C38.5944 22.7961 38.2935 23.085 37.9444 23.085H22.212C21.8509 23.085 21.562 22.784 21.562 22.435C21.562 22.0738 21.8629 21.785 22.212 21.785H23.1028L23.4398 20.2081C23.7528 18.6674 24.4028 17.259 27.0028 17.259H33.1296C35.7296 17.259 36.3916 18.6674 36.7046 20.1961L37.0416 21.7729H37.9324C38.2935 21.7729 38.5944 22.0738 38.5944 22.435Z" fill="white"/>
<path d="M38.9676 27.3701C38.8352 25.9257 38.45 24.397 35.6454 24.397H24.4991C21.6944 24.397 21.3213 25.9377 21.1768 27.3701L20.6833 32.6905C20.6231 33.3525 20.8398 34.0146 21.2972 34.5201C21.7667 35.0257 22.4167 35.3146 23.1148 35.3146H24.7518C26.1722 35.3146 26.437 34.5081 26.6176 33.9664L26.7981 33.4368C27.0028 32.8349 27.0509 32.6905 27.8333 32.6905H32.3111C33.0935 32.6905 33.1176 32.7747 33.3463 33.4368L33.5268 33.9664C33.6954 34.5081 33.9722 35.3146 35.3805 35.3146H37.0176C37.7037 35.3146 38.3657 35.0257 38.8352 34.5201C39.2926 34.0266 39.5092 33.3525 39.4491 32.6905L38.9676 27.3701ZM27.4481 29.1998H24.8361C24.475 29.1998 24.1861 28.8988 24.1861 28.5498C24.1861 28.2007 24.487 27.8998 24.8361 27.8998H27.4602C27.8213 27.8998 28.1102 28.2007 28.1102 28.5498C28.1102 28.8988 27.8092 29.1998 27.4481 29.1998ZM35.3083 29.1998H32.6842C32.3231 29.1998 32.0342 28.8988 32.0342 28.5498C32.0342 28.2007 32.3352 27.8998 32.6842 27.8998H35.3083C35.6694 27.8998 35.9583 28.2007 35.9583 28.5498C35.9583 28.8988 35.6694 29.1998 35.3083 29.1998Z" fill="white"/>
<defs>
<linearGradient id="paint0_linear_859_25249" x1="30" y1="0.5" x2="30" y2="67.1667" gradientUnits="userSpaceOnUse">
<stop stop-color="#AA283E"/>
<stop offset="1" stop-color="#EA7272"/>
</linearGradient>
</defs>
</svg>
