<svg width="138" height="129" viewBox="0 0 138 129" fill="none" xmlns="http://www.w3.org/2000/svg">
<g clip-path="url(#clip0_986_38311)">
<path d="M137.5 64.489C137.5 100.118 108.707 128.978 73.2077 128.978C37.7087 128.978 8.91504 100.096 8.91504 64.489C8.91504 28.8816 37.6868 0 73.2077 0C108.729 0 137.5 28.8816 137.5 64.489Z" fill="#323232"/>
<path d="M120.101 64.489C120.101 90.4692 99.1084 111.526 73.2073 111.526C47.3061 111.526 26.3135 90.4692 26.3135 64.489C26.3135 38.5088 47.3061 17.452 73.2073 17.452C99.1084 17.474 120.101 38.5307 120.101 64.489Z" fill="#B4B4B4"/>
<path d="M64.2885 69.5664C64.6829 69.1707 64.7925 68.5773 64.5952 68.0717C64.3761 67.5662 63.894 67.2365 63.3243 67.2365H34.6621C35.2757 75.8746 38.6722 83.7434 44.019 89.8978L64.2885 69.5664Z" fill="#787878"/>
<path d="M63.3028 61.7636C63.8506 61.7636 64.3546 61.4339 64.5738 60.9283C64.7929 60.4228 64.6614 59.8293 64.267 59.4337L43.9975 39.1023C38.6507 45.2567 35.2542 53.1255 34.6406 61.7636H63.3028Z" fill="#787878"/>
<path d="M68.1455 55.5432C68.5399 55.9389 69.1316 56.0488 69.6356 55.851C70.1396 55.6312 70.4683 55.1476 70.4683 54.5761V25.8264C61.8565 26.4419 54.0116 29.8487 47.876 35.2118L68.1455 55.5432Z" fill="#787878"/>
<path d="M75.9463 25.8264V54.5761C75.9463 55.1256 76.275 55.6312 76.779 55.851C77.283 56.0708 77.8746 55.9389 78.2691 55.5652L98.5386 35.2338C92.4029 29.8487 84.5581 26.4199 75.9463 25.8264Z" fill="#787878"/>
<path d="M82.1262 59.4117C81.7318 59.8074 81.6222 60.4008 81.8195 60.9064C82.0386 61.4119 82.5207 61.7416 83.0904 61.7416H111.753C111.139 53.1035 107.743 45.2347 102.396 39.0803L82.1262 59.4117Z" fill="#787878"/>
<path d="M83.0904 67.2365C82.5426 67.2365 82.0386 67.5662 81.8194 68.0717C81.6003 68.5773 81.7318 69.1707 82.1262 69.5664L102.396 89.8978C107.721 83.7434 111.139 75.8746 111.753 67.2365H83.0904Z" fill="#787878"/>
<path d="M78.2691 73.4568C77.8746 73.0612 77.283 72.9513 76.779 73.1491C76.275 73.3689 75.9463 73.8525 75.9463 74.4239V103.174C84.58 102.558 92.4029 99.1513 98.5386 93.7882L78.2691 73.4568Z" fill="#787878"/>
<path d="M70.4683 74.4239C70.4683 73.8744 70.1396 73.3689 69.6356 73.1491C69.1316 72.9293 68.5399 73.0612 68.1455 73.4568L47.876 93.7882C54.0116 99.1293 61.8565 102.558 70.4683 103.174V74.4239Z" fill="#787878"/>
<path d="M79.9127 64.489C79.9127 68.2036 76.9106 71.2149 73.2073 71.2149C69.504 71.2149 66.502 68.2036 66.502 64.489C66.502 60.7744 69.504 57.7632 73.2073 57.7632C76.9106 57.7632 79.9127 60.7744 79.9127 64.489Z" fill="#C8C8C8"/>
<path d="M73.2074 126.78C38.9793 126.78 11.1279 98.8436 11.1279 64.511C11.1279 30.1784 38.9793 2.21997 73.2074 2.21997C107.436 2.21997 135.287 30.1564 135.287 64.511C135.287 98.8436 107.436 126.78 73.2074 126.78ZM73.2074 7.84682C42.0691 7.84682 16.7377 33.2556 16.7377 64.489C16.7377 95.7224 42.0691 121.131 73.2074 121.131C104.346 121.131 129.677 95.7224 129.677 64.489C129.677 33.2556 104.346 7.84682 73.2074 7.84682Z" fill="#464646"/>
<path d="M59.7497 69.9472L19.3867 108.994L25.8518 115.718L66.2148 76.6712L59.7497 69.9472Z" fill="#FFDC00"/>
<path d="M22.6104 112.339L25.8535 115.724L66.2172 76.6658L62.9083 73.215L62.8426 73.171L22.6104 112.339Z" fill="#FFC800"/>
<path d="M78.839 74.9294C73.9962 79.6111 66.3048 79.4573 61.6373 74.6217C56.9698 69.7642 57.1232 62.0492 61.9441 57.3675C66.5896 52.8836 73.8867 52.8177 78.576 57.1257L67.3128 62.1152C64.2888 63.4559 68.6933 73.4348 71.7173 72.116L82.4985 67.3244C82.2355 70.1158 81.0084 72.8194 78.839 74.9294Z" fill="#FFDC00"/>
<path d="M25.218 109.834C28.7241 113.482 28.6145 119.285 24.977 122.824C21.4928 126.209 16.0146 126.231 12.4647 122.999L20.945 119.241C23.2239 118.23 19.9151 110.713 17.6361 111.724L9.52832 115.328C9.72554 113.218 10.6459 111.174 12.2894 109.614C15.9269 106.075 21.7119 106.185 25.218 109.834Z" fill="#FFDC00"/>
<path d="M42.5948 109.658L43.5809 108.691C44.0849 108.185 44.4355 107.548 44.5451 106.844C44.5889 106.668 44.6108 106.515 44.6108 106.339C44.6108 106.141 44.5889 105.943 44.567 105.767C44.567 105.745 44.567 105.723 44.567 105.701L45.0272 106.185C45.1368 106.295 45.2463 106.427 45.3559 106.537C46.6049 107.789 48.6647 107.833 49.9795 106.602L51.0094 105.657C51.7764 104.954 52.127 103.987 52.0832 103.02C52.0613 102.734 52.0174 102.426 51.9298 102.163L52.8282 103.24C53.1131 103.569 53.4418 103.833 53.8143 104.031C54.9757 104.668 56.4658 104.536 57.5395 103.635L58.6132 102.734C59.2925 102.163 59.7089 101.327 59.7746 100.448C59.8185 99.9426 59.7308 99.437 59.5555 98.9755C59.424 98.6238 59.2268 98.2941 58.9858 97.9864L59.0734 98.0963C59.3583 98.4479 59.7089 98.7117 60.1033 98.9095C60.1252 98.9095 60.1033 98.9095 60.1033 98.9095C60.4978 99.1073 60.9141 99.2392 61.3524 99.2612C62.2289 99.3271 63.1273 99.0414 63.7847 98.4699L64.8584 97.5687C66.2609 96.3818 66.4362 94.2498 65.2529 92.8431L60.7826 87.5679L60.7388 87.5239C60.5854 87.1942 60.3882 86.8645 60.1471 86.5788L50.2644 75.1712C48.9715 73.6766 47.1966 72.6875 45.2682 72.3798L41.4335 71.7863C39.7681 71.5226 38.2342 70.7533 37.007 69.6103L17.11 50.7955L0.5 68.4674L20.7038 87.5679C21.7337 88.535 22.5006 89.7659 22.9389 91.1286L23.7278 93.5904C24.1222 94.8213 24.7796 95.9203 25.6561 96.8434L28.7897 100.118L28.7239 100.184L35.9333 107.614L36.0867 107.767C36.1086 107.767 36.1086 107.789 36.1305 107.789L37.8616 109.592C39.1545 110.933 41.2582 110.955 42.5948 109.658Z" fill="#FFE4C3"/>
<path d="M59.534 98.9755C59.0081 98.404 58.4384 97.8105 57.8906 97.1951C57.3646 96.6456 56.8168 96.0741 56.3347 95.5466C56.2909 95.5026 56.2471 95.4367 56.2033 95.3927C55.7869 94.9092 55.4363 94.4256 55.1295 93.986C54.4502 93.0409 54.0996 92.3375 54.0996 92.3375L54.1434 92.3156L54.1653 92.2936C54.1653 92.2936 54.8008 92.7552 55.6335 93.5684C56.028 93.9421 56.4443 94.3817 56.8826 94.8652C56.9264 94.9092 56.9483 94.9531 56.9921 94.9971C57.4523 95.5466 57.9125 96.184 58.3726 96.7775C58.9643 97.5248 59.534 98.2501 60.0599 98.9315C59.6655 98.7337 59.3149 98.4479 59.03 98.1182L58.9424 98.0083C59.2053 98.2941 59.4026 98.6238 59.534 98.9755Z" fill="#F0BE96"/>
<path d="M0.5 68.4674L20.7038 87.5679C21.7337 88.535 22.5006 89.7659 22.9389 91.1287L23.7278 93.5904C24.1222 94.8213 24.7796 95.9203 25.6561 96.8434L28.7897 100.118L28.7239 100.184L35.9333 107.614L36.0867 107.767C36.1086 107.767 36.1086 107.789 36.1305 107.789L37.8616 109.592C39.1545 110.911 41.2801 110.955 42.5949 109.658L43.5809 108.691C44.0849 108.185 44.4355 107.548 44.5451 106.844C44.5889 106.668 44.6108 106.515 44.6108 106.339C44.6108 106.141 44.5889 105.943 44.567 105.767C44.567 105.745 44.567 105.723 44.567 105.701L45.0272 106.185C45.1368 106.295 45.2463 106.427 45.3559 106.537C46.6049 107.789 48.6647 107.833 49.9795 106.603L51.0094 105.657C51.7764 104.954 52.127 103.987 52.0832 103.02C52.0613 102.734 52.0174 102.426 51.9298 102.163L52.8282 103.24C53.1131 103.569 53.4418 103.833 53.8143 104.031C54.9757 104.668 56.4658 104.536 57.5395 103.635L58.1312 103.13L9.33094 59.06L0.5 68.4674Z" fill="#FFDAB9"/>
<path d="M53.7701 104.031C53.3976 103.833 53.0689 103.569 52.7841 103.24L51.8856 102.163C51.9733 102.448 52.039 102.734 52.039 103.02C51.6884 102.646 51.3378 102.294 51.031 101.921C50.6147 101.437 50.2422 100.954 49.9354 100.514C49.8915 100.448 49.8477 100.404 49.8258 100.36C49.1465 99.3931 48.7959 98.7117 48.7959 98.7117L48.8616 98.6677C48.8616 98.6677 48.9274 98.7117 49.0369 98.7996C49.1903 98.9095 49.4314 99.1073 49.7382 99.3931C49.9135 99.5469 50.1107 99.7228 50.3079 99.9426C50.3517 99.9865 50.4175 100.052 50.4613 100.096C50.8338 100.47 51.2502 100.888 51.6665 101.371C52.1267 101.921 52.5868 102.558 53.047 103.174C53.31 103.459 53.5291 103.745 53.7701 104.031Z" fill="#F0BE96"/>
<path d="M44.545 106.844C44.4135 106.646 44.2821 106.471 44.1725 106.317C43.9972 106.075 43.8438 105.855 43.7342 105.657C43.3617 105.064 43.1426 104.668 43.1426 104.668L43.2083 104.602C43.2083 104.602 43.5808 104.866 44.1068 105.35C44.2382 105.481 44.3916 105.613 44.5669 105.767C44.6108 105.943 44.6107 106.141 44.6107 106.339C44.6107 106.515 44.5888 106.668 44.545 106.844Z" fill="#F0BE96"/>
</g>
<defs>
<clipPath id="clip0_986_38311">
<rect width="137" height="129" fill="white" transform="translate(0.5)"/>
</clipPath>
</defs>
</svg>
