<svg width="199" height="110" viewBox="0 0 199 110" fill="none" xmlns="http://www.w3.org/2000/svg">
<g clip-path="url(#clip0_1970_64469)">
<path d="M65.5465 0.195126C93.7955 -1.41021 123.412 6.94383 119.059 19.0562C114.706 31.1686 142.334 14.7564 153.36 19.1192C161.213 22.2291 158.071 31.6911 161.871 35.5062C170.577 44.2505 179.483 33.2398 190.566 39.8437C198.343 44.4772 199.848 73.4865 197.471 92.3413C196.323 101.47 189.205 108.684 180.123 109.95L41.368 105.826L24.4588 107.142C24.4588 107.142 -6.03559 95.7723 18.4 79.87C31.2701 71.4908 21.9562 64.7673 20.5764 60.7634C18.9959 56.1678 15.3017 48.1348 31.3956 42.2423C47.4895 36.3498 43.3374 23.526 42.936 20.8693C42.5409 18.2189 37.2975 1.80046 65.5465 0.195126Z" fill="#EAFCFC"/>
<path d="M177.351 22.6887C177.351 22.6887 174.523 28.8708 172.622 31.4771C170.722 34.0897 168.909 36.5827 167.385 43.8288C165.867 51.0748 166.124 51.8051 165.71 53.6748C165.297 55.5446 162.587 63.1306 162.575 64.5155C162.562 65.9068 157.105 73.8202 155.713 77.5219C154.314 81.2236 151.843 86.5181 151.981 89.2125L152.602 89.0551C152.602 89.0551 153.11 82.7723 157.419 76.4265C161.728 70.0807 161.113 68.8783 166.005 65.6172C170.897 62.3562 174.058 53.3475 174.058 53.3475C174.058 53.3475 179.038 43.5644 178.806 38.4777C178.574 33.3909 179.891 28.8016 177.351 22.6887Z" fill="#256653"/>
<path d="M170.727 13.1826C170.727 13.1826 170.564 17.2432 169.26 19.6543C167.955 22.0655 166.832 23.5323 166.594 26.1386C166.356 28.7449 165.54 35.4747 161.903 38.7609C158.265 42.0472 157.801 51.8869 155.029 54.8583C152.263 57.8361 151.899 59.9765 152.407 65.0821C152.915 70.1877 154.652 77.2638 150.638 86.4992L149.729 84.2013C149.729 84.2013 152.601 76.6027 151.905 72.1582C151.209 67.7073 148.788 60.9901 149.672 57.7668C150.557 54.5436 147.264 53.914 149.246 49.0351C151.228 44.1624 150.412 42.4626 153.116 38.251C153.116 38.251 153.392 38.0558 154.1 34.4863C154.809 30.9168 160.535 24.3822 163.176 22.1536C165.816 19.925 169.623 16.3366 170.727 13.1826Z" fill="#256653"/>
<path d="M159.984 33.2776C159.984 33.2776 156.823 38.7042 156.779 42.1982C156.735 45.6922 157.112 48.5377 155.512 53.3222C153.913 58.1068 157.087 61.1349 156.171 63.7726C155.255 66.4167 155.186 69.5393 155.211 71.9126C155.236 74.286 151.592 82.1364 151.04 86.1088C150.488 90.0812 151.197 90.0938 151.197 90.0938C151.197 90.0938 151.799 84.8434 152.64 83.1122C153.48 81.3809 156.033 75.394 156.629 73.0773C157.225 70.7606 158.843 69.2748 160.235 65.3591C161.628 61.437 163.609 58.1382 163.459 52.5731C163.308 47.0079 165.535 41.1532 159.984 33.2776Z" fill="#3C8F7C"/>
<path d="M153.291 86.4614C153.291 86.4614 154.765 79.5742 160.974 78.8817C167.184 78.1892 170.834 79.4294 175.224 74.3931C179.615 69.3567 182.161 61.3741 183.566 59.9954C183.566 59.9954 181.358 58.8559 177.695 62.2995C174.033 65.7368 171.455 68.3494 169.335 70.3514C167.215 72.3533 165.49 71.0502 163.251 72.3659C161.376 73.4739 158.942 76.672 157.876 78.3466C157.531 78.888 157.117 79.3916 156.64 79.826C156.208 80.2226 155.7 80.7137 155.367 81.0725C154.709 81.7902 152.814 86.4803 152.814 86.4803L153.291 86.4614Z" fill="#3C8F7C"/>
<path d="M151.103 85.2463C151.103 85.2463 153.292 76.823 151.824 72.6995C150.356 68.576 145.765 65.5227 145.954 62.9353C146.135 60.3479 149.083 53.3474 146.681 48.1348C146.681 48.1348 145.765 52.7871 144.869 53.8195C143.965 54.852 137.787 59.0259 138.879 64.5344C139.976 70.0429 145.985 71.3271 147.465 72.9513C148.945 74.5756 150.946 74.5693 150.959 75.6521C150.971 76.7286 151.36 80.6506 150.695 84.516L151.103 85.2463Z" fill="#3C8F7C"/>
<path d="M153.499 79.6056L156.572 70.7102C156.572 70.7102 158.379 63.5586 159.426 57.5905C160.473 51.6288 159.978 33.2776 159.978 33.2776C159.978 33.2776 156.817 38.7042 156.773 42.1982C156.729 45.6922 157.112 48.5377 155.512 53.3222C153.913 58.1068 157.087 61.1349 156.171 63.7726C155.255 66.4167 155.186 69.5393 155.211 71.9126C155.236 74.286 151.592 82.1364 151.04 86.1088C150.739 88.287 150.815 89.2754 150.94 89.7224C150.451 86.2536 153.499 79.6056 153.499 79.6056Z" fill="#327F6B"/>
<path d="M168.645 74.3112C165.904 74.8589 163.446 74.6763 160.191 77.1063C156.936 79.5427 155.016 82.1364 155.016 82.1364C155.016 82.1364 153.555 84.7616 152.947 86.1466C152.859 86.3606 152.809 86.4865 152.809 86.4865L153.292 86.4613C153.292 86.4613 154.765 79.5741 160.975 78.8816C167.184 78.1891 170.834 79.4293 175.225 74.393C179.615 69.3567 182.161 61.3741 183.566 59.9954C183.566 59.9954 178.9 63.6404 176.015 66.8637C173.13 70.0932 171.392 73.7572 168.645 74.3112Z" fill="#327F6B"/>
<path d="M144.869 53.8133C143.965 54.8458 137.787 59.0196 138.879 64.5281C139.976 70.0366 145.985 71.3209 147.465 72.9451C148.945 74.5693 150.946 74.563 150.959 75.6459C150.971 76.7224 151.36 80.6444 150.695 84.5098L150.871 84.8309C151.197 83.32 151.642 81.0222 151.793 79.2783C152.031 76.4454 151.573 75.2681 150.664 72.9703C149.754 70.6725 144.116 65.995 142.698 63.5335C141.287 61.0719 145.427 56.961 146.342 54.978C147.258 52.9949 146.675 48.1285 146.675 48.1285C146.675 48.1285 145.772 52.7746 144.869 53.8133Z" fill="#327F6B"/>
<path d="M155.606 81.5572L156.434 79.549C157.08 78.0696 158.724 77.3645 160.11 77.9689C163.603 79.4986 165.127 83.7606 163.503 87.4875L162.317 90.2135C161.797 91.4096 161.979 92.719 162.681 93.6445C163.315 94.4881 163.421 95.6527 162.982 96.6663L162.355 98.1016C161.678 99.6566 160.361 100.809 158.805 101.281C157.889 101.558 157.087 102.244 156.66 103.226L155.776 105.26C154.797 107.507 152.295 108.584 150.187 107.658L148.983 107.129C146.876 106.204 145.96 103.635 146.932 101.388C148.513 98.6997 148.387 96.6915 147.829 95.3316C147.007 93.3297 147.014 91.0256 147.904 88.9796L148.03 88.69C148.971 86.5243 150.789 84.9127 152.953 84.2202C153.907 83.9243 154.904 83.1752 155.606 81.5572Z" fill="#50BFA5"/>
<path d="M140.685 109.95C142.378 107.74 151.679 95.9171 157.744 93.9466C164.437 91.7684 158.127 100.412 158.127 100.412C158.127 100.412 170 87.3805 174.359 88.5514C178.354 89.6279 174.359 97.705 174.359 97.705C174.359 97.705 178.856 93.2289 184.312 93.2289C189.625 93.2289 180.599 109.093 180.116 109.943H140.685V109.95Z" fill="#96D9C9"/>
<path d="M176.473 84.3713C171.618 91.9761 168.081 100.425 166.055 109.402L165.723 109.314C167.736 100.525 171.255 92.0894 176.103 84.4909C177.225 82.7281 178.442 80.6318 180.55 79.9393C180.587 79.9267 180.606 79.9896 180.568 80.0022C178.643 80.7325 177.527 82.7219 176.473 84.3713Z" fill="#3C8F7C"/>
<path d="M167.222 109.717C172.641 102.313 179.233 95.4764 187.072 89.5272C187.148 89.4706 187.254 89.6028 187.179 89.6657C179.747 95.4009 173.168 102.175 167.636 109.83L167.222 109.717Z" fill="#3C8F7C"/>
<path d="M176.918 79.656C177.043 79.8386 177.52 80.3233 177.664 80.9529C177.852 81.551 177.702 82.3001 177.689 82.2749C177.652 82.2875 178.241 81.7902 178.429 80.997C178.668 80.2352 178.498 79.1776 178.204 78.825C177.689 78.0318 176.799 77.95 176.623 78.334C176.429 78.7117 176.667 79.2342 176.918 79.656Z" fill="#3C8F7C"/>
<path d="M178.079 86.4425C177.897 86.3166 177.426 85.8255 176.799 85.6682C176.203 85.4667 175.457 85.5989 175.482 85.6178C175.47 85.6556 175.978 85.0701 176.774 84.9001C177.539 84.6735 178.587 84.8623 178.932 85.1708C179.709 85.6996 179.772 86.5999 179.39 86.7635C179.001 86.9461 178.493 86.7006 178.079 86.4425Z" fill="#3C8F7C"/>
<path d="M176.322 89.4202C176.14 89.2943 175.67 88.8033 175.042 88.6459C174.447 88.4444 173.7 88.5766 173.725 88.5955C173.713 88.6333 174.221 88.0478 175.017 87.8778C175.782 87.6512 176.83 87.8401 177.175 88.1485C177.953 88.6773 178.015 89.5776 177.633 89.7413C177.25 89.9238 176.736 89.6783 176.322 89.4202Z" fill="#3C8F7C"/>
<path d="M182.576 96.32C182.394 96.1941 181.923 95.703 181.296 95.5456C180.7 95.3442 179.954 95.4764 179.979 95.4953C179.967 95.5331 180.475 94.9476 181.271 94.7776C182.036 94.551 183.084 94.7398 183.429 95.0483C184.206 95.5771 184.269 96.4774 183.887 96.6411C183.498 96.8236 182.99 96.5781 182.576 96.32Z" fill="#3C8F7C"/>
<path d="M185.768 93.4996C185.586 93.3737 185.116 92.8827 184.489 92.7253C183.893 92.5238 183.146 92.656 183.172 92.6749C183.159 92.7127 183.667 92.1272 184.464 91.9572C185.229 91.7306 186.276 91.9195 186.621 92.2279C187.399 92.7568 187.462 93.657 187.079 93.8207C186.69 94.0033 186.176 93.7577 185.768 93.4996Z" fill="#3C8F7C"/>
<path d="M174.466 83.0177C174.616 83.1814 175.168 83.578 175.406 84.1824C175.689 84.7427 175.657 85.5107 175.638 85.4855C175.607 85.5044 176.109 84.919 176.165 84.1068C176.278 83.3136 175.952 82.3001 175.601 81.9979C174.974 81.2991 174.077 81.3557 173.964 81.7649C173.838 82.1679 174.152 82.6463 174.466 83.0177Z" fill="#3C8F7C"/>
<path d="M171.888 86.3921C172.108 86.5054 172.86 86.7195 173.243 87.286C173.676 87.7897 173.726 88.6584 173.701 88.6396C173.663 88.6773 174.24 87.8023 174.215 86.8705C174.272 85.9388 173.72 84.9441 173.231 84.7616C172.327 84.2517 171.18 84.7049 171.086 85.2086C170.973 85.7185 171.437 86.1151 171.888 86.3921Z" fill="#3C8F7C"/>
<path d="M169.178 91.504C169.41 91.5795 170.194 91.6613 170.665 92.1587C171.173 92.5868 171.374 93.4304 171.342 93.4178C171.311 93.4618 171.737 92.5049 171.555 91.5858C171.455 90.6604 170.74 89.7727 170.232 89.672C169.26 89.3194 168.2 89.9616 168.187 90.4778C168.162 90.9877 168.683 91.3025 169.178 91.504Z" fill="#3C8F7C"/>
<path d="M177.2 95.0672C177.369 95.1742 177.971 95.3882 178.254 95.873C178.574 96.3074 178.574 97.0188 178.548 96.9999C178.511 97.0251 179.038 96.3514 179.069 95.5897C179.163 94.8342 178.774 93.997 178.385 93.8144C177.683 93.3485 176.717 93.6507 176.61 94.0536C176.497 94.4628 176.849 94.8091 177.2 95.0672Z" fill="#3C8F7C"/>
<path d="M181.377 80.8521C181.277 80.7703 181.02 80.4555 180.656 80.3422C180.311 80.1974 179.866 80.2415 179.878 80.254C179.866 80.2729 180.192 79.9519 180.675 79.8889C181.139 79.7882 181.747 79.9456 181.942 80.1407C182.381 80.487 182.375 81.0221 182.142 81.1039C181.904 81.1921 181.609 81.0221 181.377 80.8521Z" fill="#3C8F7C"/>
<path d="M180.405 78.6802C180.412 78.8124 180.499 79.2027 180.368 79.5679C180.274 79.9267 179.96 80.2604 179.96 80.2415C179.935 80.2352 180.393 80.1722 180.731 79.8323C181.089 79.5238 181.34 78.9446 181.302 78.6739C181.296 78.1136 180.869 77.7863 180.662 77.9248C180.455 78.0507 180.412 78.3843 180.405 78.6802Z" fill="#3C8F7C"/>
<path d="M188.064 90.6226C187.963 90.5408 187.706 90.226 187.343 90.1127C186.998 89.9679 186.552 90.012 186.565 90.0246C186.552 90.0434 186.878 89.7224 187.361 89.6594C187.825 89.5587 188.434 89.7161 188.628 89.9112C189.067 90.2575 189.061 90.7926 188.829 90.8744C188.591 90.9626 188.296 90.7926 188.064 90.6226Z" fill="#3C8F7C"/>
<path d="M186.891 88.4318C186.903 88.564 187.029 88.948 186.928 89.3195C186.866 89.6846 186.577 90.0371 186.577 90.0246C186.552 90.0246 187.004 89.9238 187.317 89.5524C187.65 89.2187 187.85 88.6144 187.794 88.35C187.744 87.7897 187.292 87.5064 187.098 87.6575C186.891 87.8023 186.872 88.1422 186.891 88.4318Z" fill="#3C8F7C"/>
<path d="M186.076 102.59C181.121 103.138 176.505 105.329 172.064 107.469C169.066 108.911 169.217 109.326 168.608 109.54C168.508 109.578 168.408 109.465 168.458 109.37C168.69 108.905 169.311 108.59 169.737 108.319C170.233 108.004 170.753 107.734 171.286 107.476C172.415 106.922 173.576 106.43 174.73 105.927C177.075 104.907 179.459 103.944 181.936 103.289C183.297 102.93 184.677 102.672 186.076 102.546C186.101 102.546 186.101 102.584 186.076 102.59Z" fill="#3C8F7C"/>
<path d="M181.61 101.048C181.641 101.249 181.855 101.847 181.723 102.427C181.648 103.006 181.227 103.572 181.221 103.547C181.184 103.547 181.873 103.358 182.344 102.767C182.846 102.219 183.122 101.268 183.009 100.859C182.89 99.9903 182.175 99.5685 181.873 99.8266C181.572 100.066 181.566 100.595 181.61 101.048Z" fill="#3C8F7C"/>
<path d="M177.245 102.615C177.276 102.817 177.489 103.415 177.358 103.994C177.282 104.573 176.862 105.14 176.856 105.115C176.818 105.115 177.508 104.926 177.979 104.334C178.48 103.786 178.756 102.836 178.643 102.427C178.524 101.558 177.809 101.136 177.508 101.394C177.207 101.633 177.201 102.162 177.245 102.615Z" fill="#3C8F7C"/>
<path d="M172.81 104.598C172.842 104.8 173.055 105.398 172.923 105.977C172.848 106.556 172.428 107.123 172.421 107.098C172.384 107.098 173.074 106.909 173.544 106.317C174.046 105.769 174.322 104.819 174.209 104.41C174.09 103.541 173.375 103.119 173.074 103.377C172.773 103.623 172.766 104.145 172.81 104.598Z" fill="#3C8F7C"/>
<path d="M182.915 105.14C182.827 104.97 182.651 104.416 182.231 104.057C181.855 103.673 181.227 103.491 181.24 103.516C181.215 103.535 181.83 103.289 182.501 103.465C183.172 103.585 183.906 104.133 184.05 104.498C184.445 105.203 184.15 105.914 183.793 105.895C183.429 105.883 183.128 105.499 182.915 105.14Z" fill="#3C8F7C"/>
<path d="M178.374 106.752C178.286 106.582 178.11 106.028 177.69 105.669C177.314 105.285 176.686 105.102 176.699 105.127C176.674 105.146 177.289 104.901 177.96 105.077C178.631 105.197 179.365 105.744 179.509 106.109C179.904 106.814 179.609 107.526 179.252 107.507C178.888 107.494 178.587 107.11 178.374 106.752Z" fill="#3C8F7C"/>
<path d="M186.371 103.478C186.289 103.383 186.107 103.056 185.8 102.892C185.512 102.704 185.098 102.672 185.104 102.685C185.091 102.704 185.443 102.464 185.888 102.483C186.327 102.471 186.86 102.716 186.998 102.924C187.337 103.314 187.249 103.799 187.017 103.837C186.791 103.875 186.553 103.673 186.371 103.478Z" fill="#3C8F7C"/>
<path d="M185.843 101.337C185.824 101.457 185.837 101.835 185.661 102.137C185.517 102.452 185.178 102.697 185.178 102.678C185.16 102.672 185.58 102.691 185.95 102.439C186.326 102.219 186.652 101.728 186.665 101.476C186.753 100.966 186.42 100.595 186.207 100.689C186 100.777 185.9 101.073 185.843 101.337Z" fill="#3C8F7C"/>
<path d="M33.9107 65.8942C29.7649 59.2085 28.9934 51.1378 29.075 45.5411C29.1628 39.466 30.2478 34.9207 30.2604 34.8767L29.9593 34.7697C29.9468 34.8137 28.8555 39.3968 28.7614 45.5097C28.6798 51.1567 29.4638 59.3155 33.6598 66.0831L33.9107 65.8942Z" fill="#3C8F7C"/>
<path d="M31.2768 33.7624C31.1764 35.1348 30.5869 36.2868 29.7339 36.9982C29.0063 36.0413 28.5987 34.7319 28.7053 33.3532C28.8056 31.9808 29.3952 30.8287 30.2482 30.1173C30.9757 31.0742 31.3834 32.3837 31.2768 33.7624Z" fill="#3C8F7C"/>
<path d="M28.4789 36.9353C29.1814 38.1252 29.4009 39.4787 29.1751 40.6559C28.0963 40.3915 27.0552 39.6109 26.3527 38.421C25.6503 37.2312 25.4308 35.8777 25.6565 34.7004C26.7291 34.9648 27.7765 35.7455 28.4789 36.9353Z" fill="#3C8F7C"/>
<path d="M26.8922 40.6684C27.9835 41.405 28.7236 42.5319 29.0059 43.728C27.971 44.0302 26.7542 43.8476 25.6566 43.1173C24.5653 42.3808 23.8252 41.2539 23.543 40.0578C24.5841 39.7493 25.8009 39.9318 26.8922 40.6684Z" fill="#3C8F7C"/>
<path d="M27.381 45.8684C28.2466 46.4539 28.7797 47.4486 28.9302 48.5503C28.027 48.9469 27.0173 48.8965 26.1517 48.3173C25.2862 47.7319 24.7531 46.7372 24.6025 45.6355C25.4994 45.2326 26.5155 45.2829 27.381 45.8684Z" fill="#3C8F7C"/>
<path d="M30.9501 39.7053C31.9223 39.1702 33.0073 39.1387 33.9418 39.529C33.6972 40.5678 33.0449 41.4995 32.0728 42.0346C31.1006 42.5697 30.0156 42.6012 29.0811 42.2109C29.3257 41.1721 29.9779 40.2404 30.9501 39.7053Z" fill="#3C8F7C"/>
<path d="M30.8437 43.2999C31.8158 42.7648 32.9009 42.7333 33.8354 43.1236C33.5908 44.1624 32.9385 45.0941 31.9663 45.6292C30.9942 46.1643 29.9091 46.1958 28.9746 45.8055C29.2192 44.7667 29.8715 43.835 30.8437 43.2999Z" fill="#3C8F7C"/>
<path d="M31.1194 98.5989C21.9373 95.2561 15.5147 87.2798 11.7453 81.1732C7.64969 74.5504 5.71165 68.639 5.69283 68.576L5.28516 68.7397C5.30397 68.7964 7.26083 74.7519 11.3815 81.425C15.1886 87.5882 21.6801 95.6464 30.9752 99.0333L31.1194 98.5989Z" fill="#96D9C9"/>
<path d="M6.05071 66.4293C6.88489 68.0031 7.02914 69.7973 6.58383 71.346C5.12246 70.9872 3.77399 69.9547 2.93354 68.3808C2.09937 66.807 1.95511 65.0128 2.40042 63.4641C3.86179 63.823 5.21654 64.8554 6.05071 66.4293Z" fill="#96D9C9"/>
<path d="M5.15381 72.4539C6.74689 73.0835 7.92602 74.3363 8.48422 75.8157C7.11693 76.5334 5.42977 76.6656 3.83042 76.036C2.23734 75.4065 1.05821 74.1537 0.5 72.6743C1.86729 71.9629 3.55445 71.8307 5.15381 72.4539Z" fill="#96D9C9"/>
<path d="M5.97574 77.9562C7.68799 77.7296 9.28108 78.2584 10.4226 79.2845C9.48805 80.5814 8.02041 81.5131 6.30816 81.7397C4.59591 81.9664 3.00283 81.4376 1.86133 80.4114C2.80212 79.1146 4.26977 78.1828 5.97574 77.9562Z" fill="#96D9C9"/>
<path d="M9.21793 83.2255C10.9302 82.9988 12.5233 83.5277 13.6648 84.5538C12.7302 85.8507 11.2626 86.7824 9.55035 87.009C7.8381 87.2357 6.24502 86.7069 5.10352 85.6807C6.03804 84.3838 7.50568 83.4521 9.21793 83.2255Z" fill="#96D9C9"/>
<path d="M8.95416 75.0162C9.04824 73.3542 9.73815 71.8496 10.7605 70.8235C11.6699 71.8119 12.1968 73.2913 12.1027 74.9596C12.0086 76.6216 11.3187 78.1262 10.2964 79.1523C9.38692 78.164 8.86008 76.6845 8.95416 75.0162Z" fill="#96D9C9"/>
<path d="M15.4721 80.5015C15.5967 78.2033 14.9967 76.3019 14.132 76.2547C13.2674 76.2075 12.4654 78.0323 12.3408 80.3305C12.2162 82.6287 12.8162 84.5301 13.6809 84.5773C14.5456 84.6246 15.3475 82.7998 15.4721 80.5015Z" fill="#96D9C9"/>
<path d="M14.7369 88.671C15.3892 88.3248 16.1042 88.3185 16.7126 88.5766C16.5307 89.2565 16.0791 89.8608 15.4268 90.2071C14.7746 90.5533 14.0596 90.5596 13.4512 90.3015C13.6331 89.6279 14.0846 89.0172 14.7369 88.671Z" fill="#96D9C9"/>
<path d="M50.9645 90.4841C50.9645 90.4841 58.102 75.4129 55.7186 72.0511C52.4196 67.4051 48.3177 81.6642 48.117 80.4114C46.2291 68.576 46.6243 53.6496 37.7871 51.3832C32.7632 50.099 38.1195 62.5324 37.4986 65.7368C36.8776 68.9412 28.5234 57.5024 23.3741 51.4525C18.231 45.4026 15.0762 48.7391 18.0617 56.0796C20.9468 63.1809 31.3897 71.4971 29.0565 72.2085C26.717 72.9199 13.6023 63.0298 11.6267 66.6748C9.20567 71.1446 29.4014 79.0327 27.3756 79.9204C25.3497 80.808 15.7285 76.6279 15.7285 80.1848C15.7285 83.7417 29.0251 84.6357 28.6802 86.1718C28.122 88.6647 19.7677 82.2812 19.1154 85.7437C18.4506 89.2817 30.4551 89.5461 30.0349 92.3161C29.7966 93.9088 26.7672 92.2405 26.2215 94.4251C24.9734 99.411 43.896 106.393 43.896 106.393L50.9645 90.4841Z" fill="#3C8F7C"/>
<path d="M66.0486 93.2227C68.9212 94.5699 68.1435 97.9128 68.1435 97.9128C68.1435 97.9128 75.9333 91.8314 78.8435 95.382C81.7537 98.9326 80.2233 105.889 76.8113 107.022C73.3994 108.155 43.6953 107.362 43.6953 107.362C43.6953 107.362 63.4646 92.0139 66.0486 93.2227Z" fill="#96D9C9"/>
<path d="M50.964 80.8143L51.3215 80.6065C45.8335 70.836 44.7359 59.6176 44.7861 51.9246C44.8363 43.5768 46.2035 37.4703 46.2224 37.4073L45.8084 37.2562C45.7959 37.3192 44.416 43.4635 44.3659 51.8616C44.3157 59.6176 45.4196 70.9368 50.964 80.8143Z" fill="#50BFA5"/>
<path d="M47.549 35.6352C47.6331 33.0289 46.9406 30.8913 46.0024 30.8608C45.0641 30.8303 44.2353 32.9185 44.1513 35.5248C44.0672 38.1312 44.7596 40.2687 45.6979 40.2992C46.6361 40.3297 47.4649 38.2416 47.549 35.6352Z" fill="#50BFA5"/>
<path d="M43.908 40.0199C44.8363 41.7512 45.1373 43.6461 44.8551 45.2325C43.4439 44.7226 42.0766 43.5076 41.1483 41.7763C40.2138 40.0388 39.919 38.1502 40.2013 36.5637C41.6062 37.0737 42.9735 38.2887 43.908 40.0199Z" fill="#50BFA5"/>
<path d="M41.8759 44.9367C43.3059 46.095 44.2843 47.7507 44.6732 49.4316C43.3247 49.7086 41.7316 49.2931 40.2953 48.1284C38.8653 46.9701 37.8869 45.3144 37.498 43.6335C38.8528 43.3628 40.4396 43.7783 41.8759 44.9367Z" fill="#50BFA5"/>
<path d="M43.2247 53.8699C43.8519 54.3105 44.3097 54.9778 44.5167 55.6703C43.9648 55.834 43.2874 55.7144 42.6602 55.2737C42.033 54.8331 41.5751 54.1657 41.3682 53.4732C41.9201 53.3096 42.5912 53.4292 43.2247 53.8699Z" fill="#50BFA5"/>
<path d="M43.5254 57.1687C44.1526 57.6094 44.6105 58.2767 44.8175 58.9692C44.2655 59.1329 43.5882 59.0133 42.961 58.5726C42.3338 58.1319 41.8759 57.4646 41.6689 56.7721C42.2272 56.6022 42.8983 56.7281 43.5254 57.1687Z" fill="#50BFA5"/>
<path d="M47.1696 44.1749C48.4303 43.5706 49.854 43.6776 51.0708 44.3386C50.7634 45.7299 49.9167 46.9197 48.6561 47.5304C47.3954 48.1348 45.9716 48.0277 44.7549 47.3667C45.0622 45.9691 45.9027 44.7793 47.1696 44.1749Z" fill="#50BFA5"/>
<path d="M47.0631 49.0979C48.3238 48.4936 49.7476 48.6006 50.9643 49.2616C50.657 50.6529 49.8103 51.8427 48.5496 52.4534C47.2889 53.0577 45.8652 52.9507 44.6484 52.2897C44.9558 50.8921 45.8025 49.7023 47.0631 49.0979Z" fill="#50BFA5"/>
<path d="M46.3292 56.1047C47.1508 55.7081 48.0728 55.7837 48.8693 56.2118C48.6686 57.1183 48.1167 57.8926 47.295 58.2892C46.4734 58.6859 45.5514 58.6103 44.7549 58.1822C44.9619 57.2757 45.5075 56.4951 46.3292 56.1047Z" fill="#50BFA5"/>
<path d="M43.6953 107.331C43.6953 107.331 56.672 104.655 59.507 102.055C62.3356 99.4488 61.0875 98.4353 61.0875 98.4353C61.0875 98.4353 66.0737 94.488 65.9985 91.9132C65.9232 89.3384 62.668 90.6415 62.668 90.6415C62.668 90.6415 68.1748 83.5466 66.8703 82.1993C64.4367 79.6875 58.0707 87.0594 58.0707 87.0594C58.0707 87.0594 59.9585 83.5529 57.9641 82.9926C54.9598 82.1553 52.7458 90.8052 52.7458 90.8052C52.7458 90.8052 53.304 87.3868 51.2342 87.8401C47.5149 88.6585 43.6953 107.331 43.6953 107.331Z" fill="#50BFA5"/>
<path d="M49.7848 106.519C49.7848 106.519 41.28 95.7912 37.4666 93.997C33.4024 92.0832 36.9272 98.7123 36.9272 98.7123C36.9272 98.7123 28.2406 90.1757 26.1959 92.3035C24.1575 94.4377 26.3339 96.4333 26.3339 96.4333C26.3339 96.4333 19.0584 95.0798 17.9984 97.8057C16.3677 101.992 28.3346 104.076 28.3346 104.076C28.3346 104.076 23.3108 104.548 24.4586 107.142C26.1896 111.051 49.7848 106.519 49.7848 106.519Z" fill="#50BFA5"/>
<path d="M17.999 97.8058C19.059 95.0798 26.3345 96.4334 26.3345 96.4334C26.3345 96.4334 24.1581 94.4377 26.1965 92.3036C28.2349 90.1694 35.04 95.2057 35.04 95.2057C35.04 95.2057 33.9863 90.5786 39.0979 94.2174C42.7482 96.8174 49.7917 106.512 49.7917 106.512L17.999 97.8058Z" fill="#96D9C9"/>
<path d="M51.949 42.3933L44.084 107.494L45.2067 108.716L51.9428 81.7145L51.949 42.3933Z" fill="#B75742"/>
<path d="M52.9027 35.8524L45.207 108.716H62.1978L57.9768 34.3478L52.9027 35.8524Z" fill="#355389"/>
<path d="M50.4625 107.891H145.301C146.925 107.891 148.324 106.493 148.437 104.775L152.758 37.6026C152.852 36.1483 151.818 34.9711 150.444 34.9711H55.1539C53.7803 34.9711 52.5949 36.1483 52.5009 37.6026L48.1544 105.26C48.0603 106.714 49.0952 107.891 50.4625 107.891Z" fill="#EDD7BE"/>
<path d="M57.9893 34.587L57.9768 34.3478L52.4637 34.8451L45.207 108.716H46.0224L53.7181 35.8524L57.9893 34.587Z" fill="#184655"/>
<path d="M52.8894 43.6525L48.7812 105.952C48.9067 107.476 50.2363 107.891 51.0078 107.891H63.3197L55.9752 38.037L52.8894 43.6525Z" fill="#FEF8F8"/>
<path d="M62.718 59.2084H56.3206C55.4048 59.2084 54.7275 58.4278 54.8153 57.4709L55.4111 50.7851C55.4989 49.8282 56.308 49.0476 57.23 49.0476H63.6274C64.5431 49.0476 65.2205 49.8282 65.1327 50.7851L64.5368 57.4709C64.449 58.4341 63.6337 59.2084 62.718 59.2084Z" fill="#9BC1F9"/>
<path d="M76.51 59.2084H70.1125C69.1968 59.2084 68.5195 58.4278 68.6073 57.4709L69.2031 50.7851C69.2909 49.8282 70.1 49.0476 71.022 49.0476H77.4194C78.3351 49.0476 79.0125 49.8282 78.9247 50.7851L78.3288 57.4709C78.241 58.4341 77.4319 59.2084 76.51 59.2084Z" fill="#9BC1F9"/>
<path d="M90.3088 59.2084H83.9114C82.9957 59.2084 82.3183 58.4278 82.4061 57.4709L83.0019 50.7851C83.0897 49.8282 83.8988 49.0476 84.8208 49.0476H91.2182C92.1339 49.0476 92.8113 49.8282 92.7235 50.7851L92.1277 57.4709C92.0399 58.4341 91.2245 59.2084 90.3088 59.2084Z" fill="#9BC1F9"/>
<path d="M104.101 59.2084H97.7034C96.7877 59.2084 96.1103 58.4278 96.1981 57.4709L96.7939 50.7851C96.8817 49.8282 97.6908 49.0476 98.6128 49.0476H105.01C105.926 49.0476 106.603 49.8282 106.515 50.7851L105.92 57.4709C105.832 58.4341 105.023 59.2084 104.101 59.2084Z" fill="#9BC1F9"/>
<path d="M117.899 59.2084H111.501C110.586 59.2084 109.908 58.4278 109.996 57.4709L110.592 50.7851C110.68 49.8282 111.489 49.0476 112.411 49.0476H118.808C119.724 49.0476 120.401 49.8282 120.313 50.7851L119.718 57.4709C119.63 58.4341 118.814 59.2084 117.899 59.2084Z" fill="#9BC1F9"/>
<path d="M131.691 59.2084H125.293C124.377 59.2084 123.7 58.4278 123.788 57.4709L124.384 50.7851C124.472 49.8282 125.281 49.0476 126.203 49.0476H132.6C133.516 49.0476 134.193 49.8282 134.105 50.7851L133.509 57.4709C133.422 58.4341 132.613 59.2084 131.691 59.2084Z" fill="#B2443E"/>
<path d="M145.489 59.2084H139.092C138.176 59.2084 137.499 58.4278 137.587 57.4709L138.183 50.7851C138.27 49.8282 139.079 49.0476 140.001 49.0476H146.399C147.315 49.0476 147.992 49.8282 147.904 50.7851L147.308 57.4709C147.221 58.4341 146.405 59.2084 145.489 59.2084Z" fill="#B2443E"/>
<path d="M61.3566 74.5064H54.9592C54.0435 74.5064 53.3661 73.7258 53.4539 72.7689L54.0498 66.0831C54.1376 65.1262 54.9467 64.3456 55.8687 64.3456H62.2661C63.1818 64.3456 63.8592 65.1262 63.7713 66.0831L63.1755 72.7689C63.0877 73.7321 62.2786 74.5064 61.3566 74.5064Z" fill="#9BC1F9"/>
<path d="M75.1555 74.5064H68.7581C67.8423 74.5064 67.165 73.7258 67.2528 72.7689L67.8486 66.0831C67.9364 65.1262 68.7455 64.3456 69.6675 64.3456H76.0649C76.9806 64.3456 77.658 65.1262 77.5702 66.0831L76.9743 72.7689C76.8865 73.7321 76.0712 74.5064 75.1555 74.5064Z" fill="#9BC1F9"/>
<path d="M88.9475 74.5064H82.55C81.6343 74.5064 80.957 73.7258 81.0448 72.7689L81.6406 66.0831C81.7284 65.1262 82.5375 64.3456 83.4595 64.3456H89.8569C90.7726 64.3456 91.45 65.1262 91.3622 66.0831L90.7663 72.7689C90.6785 73.7321 89.8694 74.5064 88.9475 74.5064Z" fill="#9BC1F9"/>
<path d="M102.745 74.5064H96.3479C95.4322 74.5064 94.7548 73.7258 94.8426 72.7689L95.4385 66.0831C95.5263 65.1262 96.3354 64.3456 97.2573 64.3456H103.655C104.57 64.3456 105.248 65.1262 105.16 66.0831L104.564 72.7689C104.476 73.7321 103.661 74.5064 102.745 74.5064Z" fill="#9BC1F9"/>
<path d="M116.538 74.5064H110.141C109.225 74.5064 108.548 73.7258 108.636 72.7689L109.231 66.0831C109.319 65.1262 110.128 64.3456 111.05 64.3456H117.448C118.363 64.3456 119.041 65.1262 118.953 66.0831L118.357 72.7689C118.269 73.7321 117.46 74.5064 116.538 74.5064Z" fill="#9BC1F9"/>
<path d="M130.336 74.5064H123.939C123.023 74.5064 122.346 73.7258 122.433 72.7689L123.029 66.0831C123.117 65.1262 123.926 64.3456 124.848 64.3456H131.246C132.161 64.3456 132.839 65.1262 132.751 66.0831L132.155 72.7689C132.067 73.7321 131.252 74.5064 130.336 74.5064Z" fill="#B2443E"/>
<path d="M144.128 74.5064H137.731C136.815 74.5064 136.138 73.7258 136.225 72.7689L136.821 66.0831C136.909 65.1262 137.718 64.3456 138.64 64.3456H145.038C145.953 64.3456 146.631 65.1262 146.543 66.0831L145.947 72.7689C145.859 73.7321 145.05 74.5064 144.128 74.5064Z" fill="#B2443E"/>
<path d="M60.0021 89.8043H53.6047C52.689 89.8043 52.0116 89.0236 52.0995 88.0667L52.6953 81.381C52.7831 80.4241 53.5922 79.6434 54.5142 79.6434H60.9116C61.8273 79.6434 62.5047 80.4241 62.4169 81.381L61.821 88.0667C61.7332 89.0299 60.9179 89.8043 60.0021 89.8043Z" fill="#9BC1F9"/>
<path d="M73.7941 89.8043H67.3967C66.481 89.8043 65.8036 89.0236 65.8914 88.0667L66.4873 81.381C66.5751 80.4241 67.3842 79.6434 68.3062 79.6434H74.7036C75.6193 79.6434 76.2967 80.4241 76.2088 81.381L75.613 88.0667C75.5252 89.0299 74.7098 89.8043 73.7941 89.8043Z" fill="#9BC1F9"/>
<path d="M87.593 89.8043H81.1956C80.2798 89.8043 79.6025 89.0236 79.6903 88.0667L80.2861 81.381C80.3739 80.4241 81.183 79.6434 82.105 79.6434H88.5024C89.4181 79.6434 90.0955 80.4241 90.0077 81.381L89.4118 88.0667C89.324 89.0299 88.5087 89.8043 87.593 89.8043Z" fill="#9BC1F9"/>
<path d="M101.385 89.8043H94.9875C94.0718 89.8043 93.3945 89.0236 93.4823 88.0667L94.0781 81.381C94.1659 80.4241 94.975 79.6434 95.897 79.6434H102.294C103.21 79.6434 103.887 80.4241 103.8 81.381L103.204 88.0667C103.116 89.0299 102.301 89.8043 101.385 89.8043Z" fill="#9BC1F9"/>
<path d="M115.183 89.8043H108.785C107.87 89.8043 107.192 89.0236 107.28 88.0667L107.876 81.381C107.964 80.4241 108.773 79.6434 109.695 79.6434H116.092C117.008 79.6434 117.685 80.4241 117.598 81.381L117.002 88.0667C116.914 89.0299 116.099 89.8043 115.183 89.8043Z" fill="#9BC1F9"/>
<path d="M128.975 89.8043H122.577C121.662 89.8043 120.984 89.0236 121.072 88.0667L121.668 81.381C121.756 80.4241 122.565 79.6434 123.487 79.6434H129.884C130.8 79.6434 131.477 80.4241 131.39 81.381L130.794 88.0667C130.706 89.0299 129.891 89.8043 128.975 89.8043Z" fill="#B2443E"/>
<path d="M142.774 89.8043H136.376C135.461 89.8043 134.783 89.0236 134.871 88.0667L135.467 81.381C135.555 80.4241 136.364 79.6434 137.286 79.6434H143.683C144.599 79.6434 145.276 80.4241 145.188 81.381L144.593 88.0667C144.505 89.0299 143.689 89.8043 142.774 89.8043Z" fill="#B2443E"/>
<path d="M58.6408 105.102H52.2434C51.3277 105.102 50.6503 104.321 50.7381 103.365L51.334 96.6788C51.4218 95.7219 52.2309 94.9413 53.1528 94.9413H59.5503C60.466 94.9413 61.1433 95.7219 61.0555 96.6788L60.4597 103.365C60.3719 104.328 59.5565 105.102 58.6408 105.102Z" fill="#9BC1F9"/>
<path d="M72.4328 105.102H66.0354C65.1197 105.102 64.4423 104.321 64.5301 103.365L65.126 96.6788C65.2138 95.7219 66.0229 94.9413 66.9448 94.9413H73.3422C74.258 94.9413 74.9353 95.7219 74.8475 96.6788L74.2517 103.365C74.1639 104.328 73.3548 105.102 72.4328 105.102Z" fill="#9BC1F9"/>
<path d="M86.2316 105.102H79.8342C78.9185 105.102 78.2411 104.321 78.3289 103.365L78.9248 96.6788C79.0126 95.7219 79.8217 94.9413 80.7437 94.9413H87.1411C88.0568 94.9413 88.7342 95.7219 88.6463 96.6788L88.0505 103.365C87.9627 104.328 87.1473 105.102 86.2316 105.102Z" fill="#9BC1F9"/>
<path d="M100.024 105.102H93.6262C92.7105 105.102 92.0331 104.321 92.1209 103.365L92.7168 96.6788C92.8046 95.7219 93.6137 94.9413 94.5357 94.9413H100.933C101.849 94.9413 102.526 95.7219 102.438 96.6788L101.843 103.365C101.755 104.328 100.946 105.102 100.024 105.102Z" fill="#9BC1F9"/>
<path d="M113.822 105.102H107.425C106.509 105.102 105.832 104.321 105.92 103.365L106.516 96.6788C106.603 95.7219 107.412 94.9413 108.334 94.9413H114.732C115.648 94.9413 116.325 95.7219 116.237 96.6788L115.641 103.365C115.554 104.328 114.738 105.102 113.822 105.102Z" fill="#9BC1F9"/>
<path d="M152.112 109.95H57.2674C55.6429 109.95 54.3007 108.609 54.2631 106.953L52.7829 42.2927C52.7515 40.8951 53.8366 39.7556 55.2101 39.7556H150.5C151.874 39.7556 153.009 40.8888 153.04 42.2927L154.533 107.413C154.565 108.816 153.479 109.95 152.112 109.95Z" fill="#E0C8A9"/>
<path d="M152.789 110H57.9509C56.3265 110 54.9843 108.659 54.9467 107.003L53.4665 42.3367C53.4351 40.9392 54.5202 39.7997 55.8937 39.7997H151.184C152.557 39.7997 153.693 40.9329 153.724 42.3367L155.217 107.457C155.242 108.861 154.157 110 152.789 110Z" fill="#FEF8F8"/>
<path d="M34.2777 15.3573C34.9612 14.5902 34.8957 13.4121 34.1314 12.7261C33.3671 12.0401 32.1935 12.1058 31.51 12.8729C30.8265 13.6401 30.892 14.8181 31.6563 15.5041C32.4206 16.1902 33.5942 16.1244 34.2777 15.3573Z" fill="#F7CC7F"/>
<path d="M34.1864 19.5095C34.0735 18.9681 34.0108 18.3889 33.8227 17.8664C33.6659 17.4194 32.9697 17.5579 33.001 18.0364C33.0449 18.6281 33.2268 19.2262 33.3523 19.7991C33.4024 20.032 33.7098 20.139 33.9167 20.0698C34.1676 19.988 34.2366 19.7424 34.1864 19.5095Z" fill="#F7CC7F"/>
<path d="M37.3734 17.1991C36.7587 16.834 36.2193 16.3807 35.6549 15.9526C35.2095 15.619 34.7329 16.1981 35.0966 16.5947C35.6235 17.1676 36.3071 17.6209 36.972 18.0112C37.1852 18.1371 37.4737 18.0112 37.5741 17.8035C37.6932 17.5768 37.5866 17.325 37.3734 17.1991Z" fill="#F7CC7F"/>
<path d="M36.2059 13.8625C36.0679 13.9758 36.0366 14.1332 36.1244 14.2906C36.3313 14.6683 36.8582 14.6494 37.2345 14.6369C37.6234 14.6243 38.0185 14.5424 38.3885 14.4165C38.9342 14.2276 38.6394 13.3778 38.0875 13.5666C37.015 13.9381 36.6136 13.5352 36.2059 13.8625Z" fill="#F7CC7F"/>
<path d="M35.6171 10.2364C35.0777 11.0296 34.6324 11.3003 34.7014 11.7347C34.739 11.9928 34.9397 12.1124 35.1906 12.0558C35.4791 11.9865 35.6422 11.678 35.8116 11.464C35.9809 11.2562 36.144 11.0485 36.2882 10.8281C36.4262 10.6267 36.445 10.3686 36.2443 10.1923C36.0812 10.0475 35.7551 10.0349 35.6171 10.2364Z" fill="#F7CC7F"/>
<path d="M33.5091 10.0979C33.3335 9.61942 33.2958 9.44315 33.0763 9.21651C32.8819 9.02136 32.4679 9.14726 32.4428 9.43056C32.4115 9.76422 32.4805 9.89013 32.6624 10.3938C32.7439 10.6204 33.0073 10.7526 33.2331 10.6708C33.4652 10.5952 33.5906 10.3308 33.5091 10.0979Z" fill="#F7CC7F"/>
<path d="M31.2331 11.2625C30.4554 10.6708 30.2923 10.5008 29.9913 10.5323C29.8094 10.5512 29.6087 10.7211 29.6526 10.9289C29.7279 11.3066 29.9411 11.4073 30.6624 11.9299C30.8568 12.0684 31.1202 12.0747 31.2833 11.8858C31.4276 11.7158 31.4276 11.4073 31.2331 11.2625Z" fill="#F7CC7F"/>
<path d="M28.1033 13.9884C27.7959 14.1521 27.9214 14.6872 28.2538 14.7313C28.5737 14.7754 28.6928 14.7187 30.242 14.4354C30.4803 14.3913 30.6748 14.2151 30.6622 13.9507C30.6497 13.7303 30.4239 13.4848 30.1793 13.5289C28.5737 13.8247 28.4106 13.8247 28.1033 13.9884Z" fill="#F7CC7F"/>
<path d="M30.5306 16.5254C29.6838 17.3501 29.5584 17.2053 29.226 17.709C29.0755 17.9419 29.3263 18.307 29.5898 18.2567C29.9347 18.1937 30.0225 18.137 30.4678 17.7782C30.725 17.5705 30.9759 17.3501 31.2142 17.1235C31.3898 16.9535 31.3459 16.6324 31.1703 16.4813C30.9696 16.3114 30.7062 16.3554 30.5306 16.5254Z" fill="#F7CC7F"/>
<path d="M50.3618 14.9453L51.4343 13.68L53.3222 13.5478L54.401 12.0935L56.3077 12.402L57.6185 10.7778L59.4813 10.8848L61.0556 9.41166L60.4095 9.12207L59.2304 10.2301L57.261 10.1105L56.0003 11.6717L54.0623 11.3632L52.8769 12.9623L51.0329 13.0945L50.0357 14.2654L48.8691 14.171L48.543 14.7943L50.3618 14.9453Z" fill="#50BFA5"/>
<path d="M126.002 11.4198L124.993 12.553L125.35 14.0324C125.382 14.1521 125.256 14.2528 125.149 14.2024L123.763 13.5855L122.471 14.385C122.365 14.4479 122.233 14.3661 122.246 14.2465L122.402 12.7293L121.248 11.7409C121.154 11.6591 121.192 11.508 121.311 11.4828L122.791 11.1617L123.368 9.75155C123.412 9.63823 123.569 9.62564 123.632 9.73266L124.391 11.0484L125.902 11.168C126.028 11.1806 126.084 11.3254 126.002 11.4198Z" fill="#FED333"/>
<path d="M77.8958 12.9056L76.4658 10.677L75.086 11.7724L74.5654 11.1114L76.6665 9.44312L78.0903 11.6528L79.6896 10.3371L81.0256 12.3327L82.857 11.2058L83.296 11.9298L80.781 13.4785L79.5077 11.5773L77.8958 12.9056Z" fill="#B2443E"/>
<path d="M98.5754 10.2111L99.4096 8.85131L98.7385 8.5806C98.5942 8.52394 98.5189 8.35397 98.5817 8.20917C98.6381 8.06438 98.8074 7.98883 98.9517 8.05179L99.7232 8.36656L100.47 7.14524L99.7545 6.85566C99.6103 6.799 99.535 6.62902 99.5977 6.48422C99.6542 6.33943 99.8235 6.26389 99.9678 6.32684L100.783 6.6605L101.649 5.26291C101.724 5.1433 101.868 5.09294 102 5.14959L102.125 5.19996C102.288 5.26921 102.351 5.46437 102.263 5.61546L101.46 6.9312L102.646 7.41595L103.511 6.01836C103.587 5.89875 103.731 5.84839 103.863 5.90505L104.001 5.9617C104.164 6.03095 104.226 6.22611 104.139 6.3772L103.336 7.69295L104.007 7.96365C104.151 8.02031 104.226 8.19029 104.164 8.33508C104.107 8.47987 103.938 8.55542 103.794 8.49247L103.022 8.17769L102.288 9.39901L103.003 9.6886C103.148 9.74526 103.223 9.91523 103.16 10.06C103.104 10.2048 102.934 10.2804 102.79 10.2174L101.975 9.88376L101.09 11.3254C101.015 11.445 100.871 11.4954 100.739 11.4387L100.595 11.3821C100.432 11.3128 100.369 11.1177 100.457 10.9666L101.291 9.60676L100.106 9.12201L99.2214 10.5637C99.1461 10.6833 99.0019 10.7336 98.8702 10.677L98.7259 10.6203C98.5503 10.5574 98.4813 10.3622 98.5754 10.2111ZM101.592 9.12201L102.339 7.9007L101.153 7.41595L100.407 8.63726L101.592 9.12201Z" fill="#07345A"/>
<path d="M149.742 10.3622L147.93 10.0726L146.876 11.6339L144.863 11.1617L144.254 13.17L141.959 12.7356L141.168 14.5109L138.892 14.4605L138.91 13.5917L140.616 13.6295L141.444 11.7535L143.652 12.1753L144.273 10.1293L146.493 10.6518L147.522 9.12829L149.203 9.39899L149.667 8.25952L150.47 8.58688L149.742 10.3622Z" fill="#256653"/>
<path d="M146.456 30.0103H57.9329C54.684 30.0103 52.2316 32.6229 52.4512 35.8461L53.047 44.496H153.336L152.74 35.8461C152.521 32.6292 149.704 30.0103 146.456 30.0103Z" fill="#B75742"/>
<path d="M146.913 30.0103H58.384C55.1352 30.0103 52.6828 32.6229 52.9023 35.8461L53.4982 44.496H153.787L153.191 35.8461C152.978 32.6292 150.162 30.0103 146.913 30.0103Z" fill="#B2443E"/>
<path d="M65.8286 60.4172H59.4312C58.5155 60.4172 57.7441 59.6492 57.7127 58.6986L57.4932 52.0821C57.4618 51.1314 58.1831 50.3634 59.0988 50.3634H65.4962C66.4119 50.3634 67.1834 51.1314 67.2147 52.0821L67.4343 58.6986C67.4656 59.6492 66.7506 60.4172 65.8286 60.4172Z" fill="#B2443E"/>
<path d="M79.6275 60.4172H73.23C72.3143 60.4172 71.5429 59.6492 71.5115 58.6986L71.292 52.0821C71.2606 51.1314 71.9819 50.3634 72.8976 50.3634H79.295C80.2108 50.3634 80.9822 51.1314 81.0136 52.0821L81.2331 58.6986C81.2644 59.6492 80.5432 60.4172 79.6275 60.4172Z" fill="#9BC1F9"/>
<path d="M93.4195 60.4172H87.022C86.1063 60.4172 85.3349 59.6492 85.3035 58.6986L85.084 52.0821C85.0526 51.1314 85.7739 50.3634 86.6896 50.3634H93.087C94.0027 50.3634 94.7742 51.1314 94.8056 52.0821L95.0251 58.6986C95.0564 59.6492 94.3414 60.4172 93.4195 60.4172Z" fill="#9BC1F9"/>
<path d="M107.217 60.4172H100.82C99.9042 60.4172 99.1327 59.6492 99.1014 58.6986L98.8818 52.0821C98.8505 51.1314 99.5718 50.3634 100.487 50.3634H106.885C107.801 50.3634 108.572 51.1314 108.603 52.0821L108.823 58.6986C108.854 59.6492 108.133 60.4172 107.217 60.4172Z" fill="#9BC1F9"/>
<path d="M121.009 60.4172H114.612C113.696 60.4172 112.925 59.6492 112.893 58.6986L112.674 52.0821C112.642 51.1314 113.364 50.3634 114.279 50.3634H120.677C121.593 50.3634 122.364 51.1314 122.395 52.0821L122.615 58.6986C122.646 59.6492 121.931 60.4172 121.009 60.4172Z" fill="#9BC1F9"/>
<path d="M134.808 60.4172H128.411C127.495 60.4172 126.724 59.6492 126.692 58.6986L126.473 52.0821C126.441 51.1314 127.163 50.3634 128.078 50.3634H134.476C135.391 50.3634 136.163 51.1314 136.194 52.0821L136.414 58.6986C136.445 59.6492 135.724 60.4172 134.808 60.4172Z" fill="#9BC1F9"/>
<path d="M148.6 60.4172H142.203C141.287 60.4172 140.516 59.6492 140.484 58.6986L140.265 52.0821C140.233 51.1314 140.955 50.3634 141.87 50.3634H148.268C149.183 50.3634 149.955 51.1314 149.986 52.0821L150.206 58.6986C150.237 59.6492 149.522 60.4172 148.6 60.4172Z" fill="#B2443E"/>
<path d="M66.3306 75.5577H59.9332C59.0175 75.5577 58.246 74.7897 58.2146 73.8391L57.9951 67.2226C57.9638 66.272 58.685 65.5039 59.6008 65.5039H65.9982C66.9139 65.5039 67.6853 66.272 67.7167 67.2226L67.9362 73.8391C67.9676 74.7834 67.2463 75.5577 66.3306 75.5577Z" fill="#B2443E"/>
<path d="M80.1226 75.5577H73.7252C72.8095 75.5577 72.038 74.7897 72.0066 73.8391L71.7871 67.2226C71.7558 66.272 72.477 65.5039 73.3927 65.5039H79.7902C80.7059 65.5039 81.4773 66.272 81.5087 67.2226L81.7282 73.8391C81.7596 74.7834 81.0446 75.5577 80.1226 75.5577Z" fill="#9BC1F9"/>
<path d="M93.9214 75.5577H87.524C86.6083 75.5577 85.8368 74.7897 85.8055 73.8391L85.5859 67.2226C85.5546 66.272 86.2759 65.5039 87.1916 65.5039H93.589C94.5047 65.5039 95.2761 66.272 95.3075 67.2226L95.527 73.8391C95.5584 74.7834 94.8371 75.5577 93.9214 75.5577Z" fill="#9BC1F9"/>
<path d="M107.713 75.5577H101.316C100.4 75.5577 99.6288 74.7897 99.5975 73.8391L99.3779 67.2226C99.3466 66.272 100.068 65.5039 100.984 65.5039H107.381C108.297 65.5039 109.068 66.272 109.1 67.2226L109.319 73.8391C109.35 74.7834 108.635 75.5577 107.713 75.5577Z" fill="#9BC1F9"/>
<path d="M121.511 75.5577H115.114C114.198 75.5577 113.427 74.7897 113.395 73.8391L113.176 67.2226C113.144 66.272 113.866 65.5039 114.781 65.5039H121.179C122.095 65.5039 122.866 66.272 122.897 67.2226L123.117 73.8391C123.148 74.7834 122.427 75.5577 121.511 75.5577Z" fill="#9BC1F9"/>
<path d="M135.303 75.5577H128.906C127.99 75.5577 127.219 74.7897 127.187 73.8391L126.968 67.2226C126.936 66.272 127.658 65.5039 128.573 65.5039H134.971C135.887 65.5039 136.658 66.272 136.689 67.2226L136.909 73.8391C136.94 74.7834 136.225 75.5577 135.303 75.5577Z" fill="#9BC1F9"/>
<path d="M149.102 75.5577H142.705C141.789 75.5577 141.017 74.7897 140.986 73.8391L140.767 67.2226C140.735 66.272 141.457 65.5039 142.372 65.5039H148.77C149.685 65.5039 150.457 66.272 150.488 67.2226L150.708 73.8391C150.739 74.7834 150.018 75.5577 149.102 75.5577Z" fill="#B2443E"/>
<path d="M66.8257 90.6919H60.4283C59.5126 90.6919 58.7411 89.9238 58.7098 88.9732L58.4902 82.3567C58.4589 81.4061 59.1802 80.6381 60.0959 80.6381H66.4933C67.409 80.6381 68.1804 81.4061 68.2118 82.3567L68.4313 88.9732C68.4627 89.9238 67.7414 90.6919 66.8257 90.6919Z" fill="#B2443E"/>
<path d="M80.6187 90.6919H74.2213C73.3055 90.6919 72.5341 89.9238 72.5027 88.9732L72.2832 82.3567C72.2519 81.4061 72.9731 80.6381 73.8888 80.6381H80.2863C81.202 80.6381 81.9734 81.4061 82.0048 82.3567L82.2243 88.9732C82.2557 89.9238 81.5406 90.6919 80.6187 90.6919Z" fill="#9BC1F9"/>
<path d="M94.4165 90.6919H88.0191C87.1034 90.6919 86.3319 89.9238 86.3006 88.9732L86.0811 82.3567C86.0497 81.4061 86.771 80.6381 87.6867 80.6381H94.0841C94.9998 80.6381 95.7713 81.4061 95.8026 82.3567L96.0221 88.9732C96.0535 89.9238 95.3322 90.6919 94.4165 90.6919Z" fill="#9BC1F9"/>
<path d="M108.209 90.6919H101.811C100.895 90.6919 100.124 89.9238 100.093 88.9732L99.8731 82.3567C99.8417 81.4061 100.563 80.6381 101.479 80.6381H107.876C108.792 80.6381 109.563 81.4061 109.595 82.3567L109.814 88.9732C109.845 89.9238 109.13 90.6919 108.209 90.6919Z" fill="#9BC1F9"/>
<path d="M122.007 90.6919H115.61C114.694 90.6919 113.923 89.9238 113.891 88.9732L113.672 82.3567C113.641 81.4061 114.362 80.6381 115.278 80.6381H121.675C122.591 80.6381 123.362 81.4061 123.393 82.3567L123.613 88.9732C123.644 89.9238 122.923 90.6919 122.007 90.6919Z" fill="#9BC1F9"/>
<path d="M135.799 90.6919H129.402C128.486 90.6919 127.715 89.9238 127.683 88.9732L127.464 82.3567C127.433 81.4061 128.154 80.6381 129.069 80.6381H135.467C136.383 80.6381 137.154 81.4061 137.185 82.3567L137.405 88.9732C137.436 89.9238 136.721 90.6919 135.799 90.6919Z" fill="#9BC1F9"/>
<path d="M149.597 90.6919H143.2C142.284 90.6919 141.513 89.9238 141.481 88.9732L141.262 82.3567C141.23 81.4061 141.952 80.6381 142.867 80.6381H149.265C150.18 80.6381 150.952 81.4061 150.983 82.3567L151.203 88.9732C151.234 89.9238 150.513 90.6919 149.597 90.6919Z" fill="#B2443E"/>
<path d="M67.3218 105.826H60.9244C60.0087 105.826 59.2372 105.058 59.2059 104.107L58.9863 97.491C58.955 96.5404 59.6763 95.7723 60.592 95.7723H66.9894C67.9051 95.7723 68.6765 96.5404 68.7079 97.491L68.9274 104.107C68.9588 105.058 68.2438 105.826 67.3218 105.826Z" fill="#B2443E"/>
<path d="M81.1196 105.826H74.7222C73.8065 105.826 73.0351 105.058 73.0037 104.107L72.7842 97.491C72.7528 96.5404 73.4741 95.7723 74.3898 95.7723H80.7872C81.7029 95.7723 82.4744 96.5404 82.5057 97.491L82.7253 104.107C82.7566 105.058 82.0354 105.826 81.1196 105.826Z" fill="#9BC1F9"/>
<path d="M94.9116 105.826H88.5142C87.5985 105.826 86.8271 105.058 86.7957 104.107L86.5762 97.491C86.5448 96.5404 87.2661 95.7723 88.1818 95.7723H94.5792C95.4949 95.7723 96.2664 96.5404 96.2977 97.491L96.5173 104.107C96.5486 105.058 95.8336 105.826 94.9116 105.826Z" fill="#9BC1F9"/>
<path d="M108.71 105.826H102.313C101.397 105.826 100.626 105.058 100.595 104.107L100.375 97.491C100.344 96.5404 101.065 95.7723 101.981 95.7723H108.378C109.294 95.7723 110.065 96.5404 110.097 97.491L110.316 104.107C110.347 105.058 109.626 105.826 108.71 105.826Z" fill="#9BC1F9"/>
<path d="M122.502 105.826H116.105C115.189 105.826 114.418 105.058 114.387 104.107L114.167 97.491C114.136 96.5404 114.857 95.7723 115.773 95.7723H122.17C123.086 95.7723 123.857 96.5404 123.889 97.491L124.108 104.107C124.139 105.058 123.424 105.826 122.502 105.826Z" fill="#9BC1F9"/>
<path d="M58.71 40.2844C58.848 40.3663 59.0487 40.4355 59.2494 40.4355C59.5505 40.4355 59.7198 40.2781 59.701 40.0452C59.6885 39.8311 59.5567 39.7115 59.2369 39.5919C58.8543 39.4597 58.6097 39.2646 58.5846 38.9435C58.5595 38.5909 58.8355 38.3265 59.287 38.3265C59.5191 38.3265 59.6947 38.3832 59.8013 38.4399L59.7386 38.6791C59.6634 38.6413 59.5003 38.5721 59.2933 38.5721C58.9797 38.5721 58.8731 38.7609 58.8856 38.912C58.8982 39.1261 59.0487 39.2268 59.3749 39.3527C59.7763 39.5038 59.9832 39.6864 60.0083 40.02C60.0334 40.3726 59.7888 40.6747 59.2494 40.6747C59.0299 40.6747 58.779 40.6118 58.6536 40.5299L58.71 40.2844Z" fill="white"/>
<path d="M61.7962 40.1963C61.8087 40.3663 61.8213 40.5111 61.8401 40.6433H61.5767L61.539 40.3789H61.5328C61.4638 40.5111 61.3007 40.6811 61.0059 40.6811C60.7488 40.6811 60.4289 40.5363 60.385 39.9634L60.3223 39.0065H60.6233L60.686 39.913C60.7049 40.2215 60.8178 40.4355 61.0874 40.4355C61.2882 40.4355 61.4199 40.297 61.4638 40.1648C61.4763 40.1208 61.4826 40.0641 61.4826 40.0137L61.4136 39.0128H61.7146L61.7962 40.1963Z" fill="white"/>
<path d="M62.2412 39.4471C62.2286 39.2771 62.2161 39.1386 62.1973 39.0064H62.4607L62.4983 39.2771H62.5046C62.5736 39.1197 62.7555 38.9686 63.0314 38.9686C63.2572 38.9686 63.621 39.1008 63.6586 39.6674L63.7276 40.6432H63.4266L63.3639 39.6989C63.345 39.4345 63.2321 39.2142 62.9499 39.2142C62.7555 39.2142 62.6112 39.3526 62.5673 39.5163C62.5548 39.5541 62.5548 39.6045 62.5548 39.6548L62.6238 40.6369H62.3227L62.2412 39.4471Z" fill="white"/>
<path d="M74.585 39.4471C74.5788 39.4282 74.5662 39.3778 74.5537 39.2897C74.5411 39.2204 74.5286 39.1638 74.516 39.1134C74.5098 39.1701 74.4972 39.2204 74.4847 39.2771C74.4721 39.3337 74.4533 39.3904 74.4282 39.4471L73.8826 40.7313L73.155 39.4156C73.1237 39.3589 73.0986 39.3086 73.0735 39.2582C73.0484 39.2078 73.0296 39.1575 73.0108 39.1071C73.0108 39.1575 73.0108 39.2078 73.0108 39.2645C73.0045 39.3211 72.9982 39.3778 72.992 39.4408L72.8101 40.6306H72.4463L72.8477 38.1124L73.6693 39.6359C73.6819 39.6611 73.7007 39.6989 73.7258 39.7555C73.7509 39.8122 73.7822 39.8814 73.8199 39.9633C73.8387 39.894 73.87 39.8059 73.9139 39.6989C73.9265 39.6674 73.9328 39.6485 73.939 39.6359L74.5349 38.1124L75.2938 40.6306H74.9237L74.585 39.4471Z" fill="white"/>
<path d="M75.4195 39.8625C75.4132 39.7492 75.4258 39.6422 75.4634 39.5351C75.501 39.4344 75.5575 39.34 75.6328 39.2644C75.708 39.1889 75.7958 39.1259 75.9024 39.0819C76.0028 39.0378 76.1157 39.0189 76.2286 39.0189C76.3478 39.0189 76.4607 39.0378 76.5673 39.0819C76.6739 39.1259 76.7743 39.1826 76.8621 39.2644C76.9499 39.3463 77.0189 39.4344 77.069 39.5351C77.1192 39.6359 77.1506 39.7429 77.1568 39.8562C77.1631 39.9695 77.1506 40.0828 77.1129 40.1836C77.0753 40.2843 77.0189 40.3724 76.9436 40.4543C76.8621 40.5361 76.7743 40.5991 76.6676 40.6431C76.5673 40.6872 76.4544 40.7061 76.3415 40.7061C76.2286 40.7061 76.1157 40.6872 76.0091 40.6431C75.9025 40.5991 75.8021 40.5424 75.7143 40.4606C75.6265 40.3787 75.5575 40.2906 75.5073 40.1836C75.4571 40.0828 75.4258 39.9758 75.4195 39.8625ZM76.7743 39.8625C76.7617 39.7177 76.7115 39.5918 76.6049 39.4911C76.5046 39.3904 76.3854 39.34 76.2474 39.34C76.1094 39.34 76.0028 39.3904 75.915 39.4911C75.8272 39.5918 75.7896 39.7177 75.7958 39.8625C75.8084 40.0073 75.8585 40.1332 75.9652 40.2339C76.0655 40.3347 76.1847 40.385 76.3227 40.385C76.4607 40.385 76.5673 40.3347 76.6551 40.2339C76.7429 40.1332 76.7805 40.0073 76.7743 39.8625Z" fill="white"/>
<path d="M77.589 40.6432L77.4824 39.0756H77.8211L77.8399 39.3337C77.9026 39.2267 77.9842 39.1449 78.0783 39.1008C78.1723 39.0504 78.2915 39.0253 78.4295 39.0253C78.5487 39.0253 78.649 39.0442 78.7305 39.0819C78.8184 39.1197 78.8811 39.1764 78.9375 39.2456C78.9689 39.2897 78.994 39.34 79.0065 39.3967C79.0253 39.4534 79.0379 39.5541 79.0441 39.6989L79.1069 40.6495H78.7431L78.6866 39.8437C78.6741 39.6359 78.6365 39.5037 78.58 39.4345C78.5236 39.3652 78.4358 39.3337 78.304 39.3337C78.2225 39.3337 78.1472 39.3463 78.0845 39.3778C78.0218 39.4093 77.9716 39.4534 77.9403 39.51C77.9152 39.5478 77.9026 39.5982 77.8964 39.6548C77.8901 39.7115 77.8901 39.8059 77.9026 39.9381L77.9528 40.6495H77.589V40.6432Z" fill="white"/>
<path d="M87.2039 38.5595L87.3482 40.6433H86.9531L86.8088 38.5595H86.1628L86.1377 38.2258H87.8249L87.8499 38.5595H87.2039Z" fill="white"/>
<path d="M88.1632 39.0757L88.2259 39.957C88.2384 40.1081 88.2761 40.2152 88.3451 40.2844C88.414 40.3474 88.5207 40.3851 88.6587 40.3851C88.8029 40.3851 88.9033 40.3537 88.9597 40.2844C89.0162 40.2215 89.0412 40.1081 89.035 39.957L88.9723 39.0757H89.336L89.3862 39.85C89.405 40.1522 89.3611 40.3662 89.2482 40.5047C89.1353 40.637 88.9472 40.7062 88.6837 40.7062C88.414 40.7062 88.2133 40.637 88.0816 40.5047C87.9499 40.3725 87.8747 40.1522 87.8558 39.85L87.8057 39.0757H88.1632Z" fill="white"/>
<path d="M91.3877 39.913H90.1271C90.1459 40.0578 90.196 40.1712 90.2839 40.253C90.3654 40.3348 90.4783 40.3789 90.6037 40.3789C90.7229 40.3789 90.817 40.3537 90.8922 40.3034C90.9675 40.253 91.0302 40.1775 91.0804 40.0704L91.394 40.2404C91.3187 40.3978 91.2121 40.5174 91.0867 40.5929C90.9612 40.6685 90.8107 40.7063 90.6351 40.7063C90.3842 40.7063 90.1772 40.6307 90.0142 40.4796C89.8511 40.3285 89.7633 40.1208 89.7445 39.869C89.7257 39.6235 89.7884 39.422 89.9326 39.2646C90.0769 39.1072 90.2713 39.0254 90.5096 39.0254C90.7605 39.0254 90.9675 39.0946 91.118 39.2394C91.2686 39.3842 91.3564 39.5857 91.3752 39.8438L91.3877 39.913ZM90.9989 39.6738C90.9738 39.5605 90.9299 39.4787 90.8546 39.4157C90.7793 39.359 90.679 39.3276 90.5536 39.3276C90.4344 39.3276 90.3403 39.359 90.2713 39.4157C90.2023 39.4724 90.1584 39.5605 90.1396 39.6738H90.9989Z" fill="white"/>
<path d="M99.9863 38.2258H100.375L100.921 39.4471C100.958 39.5289 100.984 39.5982 101.009 39.6611C101.034 39.7241 101.053 39.7807 101.071 39.8311C101.103 39.7052 101.134 39.5793 101.165 39.4534C101.172 39.4408 101.172 39.4282 101.178 39.4219L101.579 38.1313L102.188 39.4471C102.219 39.51 102.244 39.573 102.269 39.636C102.294 39.6989 102.32 39.7619 102.345 39.8311C102.351 39.7807 102.363 39.7241 102.376 39.6674C102.389 39.6108 102.407 39.5352 102.432 39.4534L102.802 38.2258H103.198L102.426 40.7377L101.774 39.359C101.742 39.296 101.717 39.2393 101.692 39.1827C101.667 39.126 101.648 39.0694 101.63 39.019C101.617 39.082 101.598 39.1449 101.586 39.2016C101.573 39.2582 101.554 39.3149 101.536 39.3652L101.084 40.7377L99.9863 38.2258Z" fill="white"/>
<path d="M104.891 39.9129H103.63C103.649 40.0577 103.699 40.171 103.787 40.2529C103.868 40.3347 103.981 40.3788 104.107 40.3788C104.226 40.3788 104.32 40.3536 104.395 40.3032C104.47 40.2529 104.533 40.1773 104.583 40.0703L104.897 40.2403C104.822 40.3977 104.715 40.5173 104.59 40.5928C104.464 40.6684 104.314 40.7061 104.138 40.7061C103.887 40.7061 103.68 40.6306 103.517 40.4795C103.354 40.3284 103.266 40.1207 103.247 39.8689C103.229 39.6233 103.291 39.4219 103.436 39.2645C103.58 39.1071 103.774 39.0253 104.013 39.0253C104.263 39.0253 104.47 39.0945 104.621 39.2393C104.771 39.3841 104.859 39.5856 104.878 39.8437L104.891 39.9129ZM104.496 39.6737C104.47 39.5604 104.427 39.4785 104.351 39.4156C104.276 39.3589 104.176 39.3274 104.05 39.3274C103.931 39.3274 103.837 39.3589 103.768 39.4156C103.699 39.4722 103.655 39.5604 103.636 39.6737H104.496Z" fill="white"/>
<path d="M106.259 38.0873H106.622L106.798 40.6432H106.434L106.422 40.4418C106.365 40.5299 106.29 40.5992 106.208 40.6432C106.127 40.6873 106.026 40.7062 105.92 40.7062C105.694 40.7062 105.518 40.6306 105.38 40.4795C105.242 40.3285 105.161 40.1207 105.148 39.8563C105.13 39.6045 105.18 39.403 105.305 39.2519C105.424 39.1008 105.594 39.019 105.801 39.019C105.932 39.019 106.039 39.0442 106.139 39.1008C106.233 39.1512 106.309 39.233 106.353 39.3338L106.259 38.0873ZM106.39 39.8563C106.378 39.6926 106.334 39.5667 106.252 39.4786C106.171 39.3904 106.058 39.3464 105.926 39.3464C105.788 39.3464 105.688 39.3904 105.612 39.4849C105.544 39.5793 105.512 39.7052 105.525 39.8689C105.537 40.0326 105.581 40.1648 105.663 40.2529C105.744 40.341 105.851 40.3851 105.989 40.3851C106.121 40.3851 106.221 40.3347 106.296 40.2403C106.371 40.1459 106.403 40.0137 106.39 39.8563Z" fill="white"/>
<path d="M114.964 38.5595L115.108 40.6433H114.713L114.569 38.5595H113.923L113.897 38.2258H115.585L115.61 38.5595H114.964Z" fill="white"/>
<path d="M116.023 40.6432L115.848 38.0873H116.186L116.274 39.3338C116.337 39.2268 116.418 39.1449 116.512 39.1008C116.607 39.0505 116.726 39.0253 116.864 39.0253C116.983 39.0253 117.083 39.0442 117.165 39.082C117.246 39.1197 117.315 39.1764 117.372 39.2456C117.403 39.2897 117.428 39.3401 117.441 39.3967C117.46 39.4534 117.472 39.5541 117.478 39.6989L117.541 40.6495H117.177L117.121 39.8437C117.108 39.636 117.071 39.5038 117.014 39.4345C116.958 39.3653 116.87 39.3338 116.738 39.3338C116.657 39.3338 116.581 39.3464 116.519 39.3778C116.456 39.4093 116.406 39.4534 116.375 39.51C116.349 39.5478 116.337 39.5982 116.331 39.6548C116.324 39.7115 116.324 39.8059 116.337 39.9381L116.387 40.6495H116.023V40.6432Z" fill="white"/>
<path d="M118.263 39.0757L118.325 39.957C118.338 40.1081 118.376 40.2152 118.445 40.2844C118.514 40.3474 118.62 40.3851 118.758 40.3851C118.903 40.3851 119.003 40.3537 119.059 40.2844C119.116 40.2215 119.141 40.1081 119.135 39.957L119.072 39.0757H119.436L119.486 39.85C119.505 40.1522 119.461 40.3662 119.348 40.5047C119.235 40.637 119.047 40.7062 118.783 40.7062C118.514 40.7062 118.313 40.637 118.181 40.5047C118.05 40.3725 117.974 40.1522 117.955 39.85L117.905 39.0757H118.263Z" fill="white"/>
<path d="M128.197 40.6433L128.034 38.2258H129.395L129.42 38.5595H128.454L128.498 39.1638H129.464L129.489 39.5101H128.523L128.599 40.6433H128.197Z" fill="white"/>
<path d="M130.166 39.3276C130.198 39.2268 130.242 39.145 130.304 39.1009C130.367 39.0506 130.442 39.0254 130.536 39.0254C130.587 39.0254 130.637 39.0317 130.687 39.0443C130.737 39.0569 130.787 39.0758 130.837 39.0946L130.731 39.3968C130.699 39.3779 130.662 39.359 130.624 39.3465C130.587 39.3339 130.549 39.3339 130.505 39.3339C130.386 39.3339 130.304 39.3842 130.254 39.4787C130.21 39.5731 130.191 39.7305 130.21 39.9571L130.26 40.6433H129.897L129.79 39.0758H130.154L130.166 39.3276Z" fill="white"/>
<path d="M130.963 38.4021C130.957 38.3391 130.976 38.2888 131.02 38.2447C131.063 38.2006 131.114 38.1818 131.176 38.1818C131.239 38.1818 131.296 38.2006 131.339 38.2447C131.383 38.2888 131.408 38.3391 131.415 38.4021C131.421 38.4651 131.402 38.5217 131.358 38.5658C131.321 38.6099 131.264 38.6287 131.201 38.6287C131.139 38.6287 131.082 38.6036 131.038 38.5595C130.994 38.5154 130.969 38.4651 130.963 38.4021ZM131.17 40.6433L131.063 39.0757H131.427L131.534 40.6433H131.17Z" fill="white"/>
<path d="M141.908 40.1585L142.216 40.0137C142.253 40.1207 142.316 40.2025 142.397 40.2592C142.479 40.3159 142.586 40.341 142.711 40.341C142.83 40.341 142.918 40.3096 142.987 40.2466C143.05 40.1837 143.081 40.0955 143.075 39.9885C143.062 39.8437 142.937 39.7178 142.692 39.6108C142.661 39.5919 142.629 39.5793 142.611 39.573C142.335 39.4408 142.147 39.3275 142.052 39.2205C141.958 39.1134 141.902 38.9875 141.889 38.8364C141.877 38.6413 141.933 38.4776 142.059 38.358C142.184 38.2384 142.36 38.1754 142.573 38.1754C142.755 38.1754 142.905 38.2069 143.031 38.2761C143.156 38.3454 143.244 38.4461 143.301 38.572L143 38.7294C142.943 38.6539 142.887 38.5972 142.83 38.5657C142.767 38.528 142.705 38.5154 142.623 38.5154C142.517 38.5154 142.435 38.5405 142.372 38.5972C142.316 38.6539 142.285 38.7231 142.291 38.8175C142.303 38.9623 142.448 39.1008 142.73 39.2205C142.749 39.233 142.767 39.2393 142.78 39.2456C143.031 39.3527 143.2 39.466 143.301 39.5667C143.395 39.6737 143.451 39.8059 143.464 39.9633C143.482 40.1899 143.42 40.3725 143.282 40.511C143.144 40.6432 142.956 40.7125 142.705 40.7125C142.498 40.7125 142.322 40.6621 142.184 40.5677C142.059 40.467 141.958 40.3347 141.908 40.1585Z" fill="white"/>
<path d="M145.401 40.6433H145.038L145.025 40.4418C144.969 40.5299 144.893 40.5992 144.812 40.6433C144.73 40.6873 144.63 40.7062 144.523 40.7062C144.298 40.7062 144.122 40.6307 143.984 40.4796C143.846 40.3285 143.764 40.1207 143.752 39.8563C143.733 39.6045 143.783 39.4031 143.909 39.252C144.028 39.1009 144.197 39.019 144.404 39.019C144.536 39.019 144.643 39.0442 144.743 39.1009C144.837 39.1512 144.912 39.2331 144.956 39.3338L144.937 39.0757H145.301L145.401 40.6433ZM144.994 39.8563C144.981 39.6927 144.937 39.5667 144.856 39.4786C144.774 39.3905 144.661 39.3464 144.53 39.3464C144.392 39.3464 144.291 39.3905 144.216 39.4849C144.147 39.5793 144.116 39.7052 144.128 39.8689C144.141 40.0326 144.185 40.1648 144.266 40.2529C144.348 40.3411 144.454 40.3852 144.592 40.3852C144.724 40.3852 144.824 40.3348 144.9 40.2404C144.975 40.1459 145.006 40.0137 144.994 39.8563Z" fill="white"/>
<path d="M145.985 40.6432L145.897 39.3904H145.621L145.603 39.0757H145.878L145.835 38.4839H146.198L146.236 39.0757H146.512L146.531 39.3904H146.255L146.343 40.6432H145.985Z" fill="white"/>
<path d="M110.066 57.408C109.827 58.579 109.288 59.8192 108.14 60.6502C106.685 61.7015 104.527 61.7141 102.89 60.6816L102.872 60.669C102.2 60.2661 100.087 58.7238 101.21 55.7145L101.818 55.9412C100.902 58.409 102.483 59.6744 103.204 60.1088C103.217 60.115 103.229 60.1213 103.235 60.1276C104.653 61.0216 106.516 61.0153 107.757 60.115C109.658 58.7426 109.645 55.9727 109.558 54.8458C109.52 54.3736 109.445 53.8259 109.213 53.3663C108.711 52.3906 107.481 51.4714 106.227 51.1252C104.979 50.7789 103.844 50.653 102.865 50.7474C101.749 50.8545 100.683 51.484 100.156 52.3528C100.112 52.422 100.074 52.4913 100.03 52.5605C99.4408 53.5174 98.9328 54.3484 99.0896 55.8216L98.4436 55.8908C98.268 54.1973 98.8826 53.1901 99.4784 52.2206C99.5224 52.1513 99.56 52.0821 99.6039 52.0128C100.237 50.9741 101.492 50.2186 102.809 50.0927C103.869 49.992 105.079 50.1242 106.409 50.4893C107.607 50.823 109.118 51.7421 109.802 53.0642C110.091 53.6245 110.172 54.2477 110.216 54.7891C110.254 55.3809 110.279 56.363 110.066 57.408Z" fill="#B2443E"/>
<path d="M141.162 35.2165C142.045 35.2165 142.761 34.3597 142.761 33.3027C142.761 32.2458 142.045 31.3889 141.162 31.3889C140.279 31.3889 139.562 32.2458 139.562 33.3027C139.562 34.3597 140.279 35.2165 141.162 35.2165Z" fill="#B75742"/>
<path d="M141.162 31.3889C140.999 31.3889 140.842 31.4204 140.691 31.4708C141.344 31.71 141.82 32.4403 141.82 33.2964C141.82 34.1589 141.344 34.8829 140.691 35.1221C140.842 35.1788 140.999 35.2039 141.162 35.2039C142.046 35.2039 142.761 34.3478 142.761 33.2901C142.761 32.2451 142.046 31.3889 141.162 31.3889Z" fill="#A54737"/>
<path d="M134.4 18.6659C129.753 18.6659 125.971 22.8209 125.971 27.9328C125.971 28.6504 126.046 29.3429 126.184 30.0103H127.476C127.313 29.3492 127.231 28.6504 127.231 27.9328C127.231 23.5197 130.449 19.9313 134.4 19.9313C138.352 19.9313 141.569 23.5197 141.569 27.9328C141.569 30.1865 140.729 32.2262 139.386 33.6805C139.148 33.9386 139.173 34.3478 139.437 34.5807C139.443 34.5807 139.443 34.587 139.449 34.587C139.7 34.8074 140.083 34.7885 140.308 34.543C141.864 32.8621 142.83 30.5202 142.83 27.9391C142.83 22.8209 139.048 18.6659 134.4 18.6659Z" fill="#184655"/>
<path d="M139.569 33.3594C139.569 33.3594 139.644 34.4548 140.416 34.9899C141.187 35.525 139.349 35.8083 139.255 35.7139C139.161 35.6195 138.308 35.0655 138.289 34.5178C138.271 33.9638 138.446 33.5168 138.478 33.4413C138.509 33.3657 138.747 32.9376 138.81 32.9376C138.867 32.9439 139.569 33.3594 139.569 33.3594Z" fill="#B2443E"/>
<path d="M119.498 35.2165C120.381 35.2165 121.097 34.3597 121.097 33.3027C121.097 32.2458 120.381 31.3889 119.498 31.3889C118.614 31.3889 117.898 32.2458 117.898 33.3027C117.898 34.3597 118.614 35.2165 119.498 35.2165Z" fill="#B75742"/>
<path d="M119.498 31.3889C119.335 31.3889 119.178 31.4204 119.027 31.4708C119.68 31.71 120.156 32.4403 120.156 33.2964C120.156 34.1589 119.68 34.8829 119.027 35.1221C119.178 35.1788 119.335 35.2039 119.498 35.2039C120.382 35.2039 121.097 34.3478 121.097 33.2901C121.097 32.2451 120.382 31.3889 119.498 31.3889Z" fill="#A54737"/>
<path d="M112.737 18.6659C108.09 18.6659 104.308 22.8209 104.308 27.9328C104.308 28.6504 104.383 29.3429 104.521 30.0103H105.813C105.65 29.3492 105.568 28.6504 105.568 27.9328C105.568 23.5197 108.786 19.9313 112.737 19.9313C116.688 19.9313 119.906 23.5197 119.906 27.9328C119.906 30.1865 119.066 32.2262 117.723 33.6805C117.485 33.9386 117.51 34.3478 117.774 34.5807C117.78 34.5807 117.78 34.587 117.786 34.587C118.037 34.8074 118.42 34.7885 118.645 34.543C120.201 32.8621 121.167 30.5202 121.167 27.9391C121.173 22.8209 117.391 18.6659 112.737 18.6659Z" fill="#184655"/>
<path d="M117.905 33.3594C117.905 33.3594 117.98 34.4548 118.752 34.9899C119.523 35.525 117.685 35.8083 117.591 35.7139C117.497 35.6195 116.644 35.0655 116.625 34.5178C116.607 33.9638 116.782 33.5168 116.814 33.4413C116.845 33.3657 117.083 32.9376 117.146 32.9376C117.209 32.9376 117.905 33.3594 117.905 33.3594Z" fill="#B2443E"/>
<path d="M99.4341 33.3027C99.4341 34.3604 98.7191 35.2165 97.8347 35.2165C96.9504 35.2165 96.2354 34.3604 96.2354 33.3027C96.2354 32.2451 96.9504 31.3889 97.8347 31.3889C98.7191 31.3889 99.4341 32.2451 99.4341 33.3027Z" fill="#B75742"/>
<path d="M97.8415 31.3889C97.6784 31.3889 97.5216 31.4204 97.3711 31.4708C98.0234 31.71 98.5 32.4403 98.5 33.2964C98.5 34.1589 98.0234 34.8829 97.3711 35.1221C97.5216 35.1788 97.6784 35.2039 97.8415 35.2039C98.7258 35.2039 99.4408 34.3478 99.4408 33.2901C99.4346 32.2451 98.7196 31.3889 97.8415 31.3889Z" fill="#A54737"/>
<path d="M91.0741 18.6659C86.4265 18.6659 82.6445 22.8209 82.6445 27.9328C82.6445 28.6504 82.7198 29.3429 82.8578 30.0103H84.1498C83.9867 29.3492 83.9052 28.6504 83.9052 27.9328C83.9052 23.5197 87.1227 19.9313 91.0741 19.9313C95.0254 19.9313 98.2429 23.5197 98.2429 27.9328C98.2429 30.1865 97.4025 32.2262 96.0603 33.6805C95.822 33.9386 95.847 34.3478 96.1105 34.5807C96.1167 34.5807 96.1167 34.587 96.123 34.587C96.3739 34.8074 96.7565 34.7885 96.9823 34.543C98.5377 32.8621 99.5036 30.5202 99.5036 27.9391C99.5099 22.8209 95.7279 18.6659 91.0741 18.6659Z" fill="#184655"/>
<path d="M96.2418 33.3594C96.2418 33.3594 96.3171 34.4548 97.0885 34.9899C97.86 35.525 96.0223 35.8083 95.9282 35.7139C95.8342 35.6195 94.9812 35.0655 94.9623 34.5178C94.9435 33.9638 95.1191 33.5168 95.1505 33.4413C95.1819 33.3657 95.4202 32.9376 95.4829 32.9376C95.5394 32.9439 96.2418 33.3594 96.2418 33.3594Z" fill="#B2443E"/>
<path d="M76.1775 35.2165C77.0608 35.2165 77.7768 34.3597 77.7768 33.3027C77.7768 32.2458 77.0608 31.3889 76.1775 31.3889C75.2942 31.3889 74.5781 32.2458 74.5781 33.3027C74.5781 34.3597 75.2942 35.2165 76.1775 35.2165Z" fill="#B75742"/>
<path d="M76.1774 31.3889C76.0144 31.3889 75.8576 31.4204 75.707 31.4708C76.3593 31.71 76.836 32.4403 76.836 33.2964C76.836 34.1589 76.3593 34.8829 75.707 35.1221C75.8576 35.1788 76.0144 35.2039 76.1774 35.2039C77.0618 35.2039 77.7768 34.3478 77.7768 33.2901C77.7705 32.2451 77.0555 31.3889 76.1774 31.3889Z" fill="#A54737"/>
<path d="M69.41 18.6659C64.7625 18.6659 60.9805 22.8209 60.9805 27.9328C60.9805 28.6504 61.0557 29.3429 61.1937 30.0103H62.4857C62.3227 29.3492 62.2411 28.6504 62.2411 27.9328C62.2411 23.5197 65.4587 19.9313 69.41 19.9313C73.3613 19.9313 76.5789 23.5197 76.5789 27.9328C76.5789 30.1865 75.7384 32.2262 74.3962 33.6805C74.1579 33.9386 74.183 34.3478 74.4464 34.5807C74.4527 34.5807 74.4527 34.587 74.4589 34.587C74.7098 34.8074 75.0924 34.7885 75.3182 34.543C76.8737 32.8621 77.8395 30.5202 77.8395 27.9391C77.8458 22.8209 74.0638 18.6659 69.41 18.6659Z" fill="#184655"/>
<path d="M74.5787 33.3594C74.5787 33.3594 74.654 34.4548 75.4255 34.9899C76.1969 35.525 74.3592 35.8083 74.2651 35.7139C74.1711 35.6195 73.3181 35.0655 73.2993 34.5178C73.2804 33.9638 73.4561 33.5168 73.4874 33.4413C73.5188 33.3657 73.7571 32.9376 73.8198 32.9376C73.8763 32.9439 74.5787 33.3594 74.5787 33.3594Z" fill="#B2443E"/>
<path d="M155.117 107.463L155.016 103.05L150.212 103.994C150.212 103.994 135.906 105.662 135.843 105.662C135.78 105.662 122.032 109.71 122.032 109.71L120.313 110H152.696C154.069 110 155.154 108.86 155.117 107.463Z" fill="#F7CC7F"/>
<path d="M120.313 110C120.313 110 131.735 107.494 140.76 91.7936C140.76 91.7936 145.188 103.9 155.016 103.056C155.016 103.05 141.845 109.2 120.313 110Z" fill="#FAE0B2"/>
<path d="M77.6767 48.5125C77.3756 48.4873 77.0809 48.4558 76.7861 48.3929C76.4537 48.3236 76.0272 48.2544 75.7763 48.2796C75.2494 48.3299 74.3839 48.6069 74.0327 49.2554C73.5936 50.0612 72.3894 49.7968 73.4682 53.1648C74.6912 56.9799 76.7359 56.0041 76.7735 55.9285C76.8112 55.8467 78.0655 52.9634 78.0655 52.9634C78.0655 52.9634 79.0816 54.2288 79.0691 54.1721C79.0628 54.1217 81.2643 48.7895 77.6767 48.5125Z" fill="#0E2E35"/>
<path d="M78.5107 62.4506C78.9184 62.117 82.0732 63.5083 82.0356 63.993C81.998 64.4778 84.237 69.1679 84.237 69.1679L88.1131 66.0642C88.1445 65.9509 88.5145 64.7485 88.5333 64.5281C88.5522 64.3015 89.2044 63.9049 89.5118 63.9615C89.8191 64.0182 89.2546 64.4022 89.217 64.4715C89.1166 64.6603 89.5055 64.7359 89.5055 64.7359C89.5055 64.7359 90.6282 64.1189 90.647 63.7538C90.6721 63.3887 90.9042 62.6332 91.1425 62.7906C91.2679 62.8724 91.2679 63.4138 91.2303 63.6656C91.2993 63.3761 91.4059 63.0487 91.5063 63.0172C91.6882 62.9606 91.776 63.1872 91.7446 63.3005C91.7132 63.4138 91.4185 64.6477 91.3306 64.7862C91.2428 64.9247 89.4365 66.3853 89.1731 66.7C89.1731 66.7 84.1618 72.4541 83.8043 72.6052C83.4907 72.7374 82.3743 70.7543 81.3206 69.4386C80.2606 68.1354 77.2375 63.4894 78.5107 62.4506Z" fill="#F7A491"/>
<path d="M68.3944 104.75C68.3944 104.75 67.7045 105.423 67.6919 105.675C67.6794 105.921 67.6292 108.577 67.9115 108.823C68.1937 109.068 69.0216 109.245 68.7519 109.522C68.5512 109.729 67.0083 109.685 65.986 109.629C65.6849 109.61 65.3149 107.217 65.1957 106.865C65.0264 106.355 64.6061 105.203 64.7629 104.85C64.8382 104.674 65.202 104.322 65.7163 103.988C66.2557 103.635 66.77 102.861 66.77 102.861L68.3944 104.75Z" fill="#F48C7F"/>
<path d="M75.5319 106.317L74.9172 108.067C74.8733 108.344 74.6914 109.03 74.6914 109.282C74.6914 110.227 78.9438 108.476 77.9905 108.061C77.9027 108.023 77.633 107.721 77.6079 107.4C77.564 106.903 77.9654 106.279 77.9654 106.279L75.5319 106.317Z" fill="#F7A491"/>
<path d="M82.1991 73.7698C82.1991 73.7698 82.5064 76.9049 82.5064 76.949C82.5064 82.0168 83.51 91.9195 83.3155 92.8701C82.8514 95.1931 77.8526 107.054 77.8526 107.054L75.1494 106.733L78.668 92.5364L77.3697 86.8202L75.5383 75.5262L82.1991 73.7698Z" fill="#355389"/>
<path d="M73.1297 76.5397L72.6154 79.5112L71.2292 91.7369L65.9482 103.686C65.9482 103.686 66.6883 105.423 67.7859 105.669L76.1904 93.4052L81.4149 77.7107L81.233 74.223L73.1297 76.5397Z" fill="#466EB6"/>
<path d="M83.278 66.3096L79.5336 66.6937C79.5336 66.6937 79.3643 63.6089 79.3643 62.1421C79.3643 60.3605 79.5148 58.0626 79.728 58.1067C80.3301 58.2452 81.1392 58.5789 81.6222 59.2462C83.2905 61.5503 83.278 66.3096 83.278 66.3096Z" fill="#3C8F7C"/>
<path d="M81.4332 61.821C81.5147 62.3624 82.951 77.1504 82.951 77.1504C76.1271 80.4555 72.3639 77.7422 72.3639 77.7422C72.3639 77.7422 72.5897 67.361 72.32 65.9445C72.1444 65.0065 71.9249 58.7929 72.527 58.623C73.3047 58.4026 74.1891 58.1634 75.1612 58.0627C75.9891 57.9745 79.2004 57.9242 79.7711 58.1193C79.7711 58.1193 81.1071 59.5358 81.4332 61.821Z" fill="#96D9C9"/>
<path d="M65.7469 103.969C65.7469 103.969 67.3338 108.458 67.9547 108.672C68.1177 108.728 68.9143 108.873 69.0585 109.226C69.1024 109.333 69.0585 109.685 69.0585 109.685H65.7469C65.7469 109.685 65.3267 107.708 65.1636 106.84C65.1636 106.84 64.2856 104.718 64.3859 104.523C64.4863 104.334 65.7469 103.969 65.7469 103.969Z" fill="#184655"/>
<path d="M74.4463 109.597L74.9355 108.055C74.9355 108.055 75.9578 108.489 76.4659 108.414C76.9739 108.344 77.9774 108.055 77.9774 108.055C80.0158 108.728 81.6904 109.056 81.3831 109.597H74.4463Z" fill="#184655"/>
<path d="M83.8045 72.6178C83.817 72.6115 83.8735 72.5674 83.9049 72.5422C83.7857 71.0943 83.8045 69.6904 84.2561 69.2119C84.2435 69.1868 84.1432 68.979 84.0428 68.7587C83.516 69.1679 83.2714 70.2507 83.3655 72.0071C83.3717 72.1267 83.4094 72.2212 83.4345 72.3722C83.5913 72.5359 83.7292 72.6492 83.8045 72.6178Z" fill="#F7A491"/>
<path d="M77.9154 56.5455L78.1161 58.0438C78.1161 58.0438 78.5677 60.2031 77.9844 60.6186C77.4074 61.0341 75.5195 57.9808 75.5195 57.9808L75.7202 54.1847L77.9154 56.5455Z" fill="#F7A491"/>
<path d="M75.6572 55.4124C76.1339 56.7092 77.2754 57.5025 78.0907 57.8109L77.9214 56.5393L75.7262 54.1785L75.6572 55.4124Z" fill="#B2443E"/>
<path d="M93.7639 61.8525L99.948 52.4156L89.3296 56.1488L87.9121 60.2598L93.7639 61.8525Z" fill="#F2E9DA"/>
<path d="M87.9121 60.2598L89.4174 60.669L99.948 52.4156L89.3296 56.1488L87.9121 60.2598Z" fill="#E0D5C3"/>
<path d="M89.3299 56.1489L92.077 55.1857L90.578 57.7605L56.8473 84.195L56.6152 81.7901L89.3299 56.1489Z" fill="#E8BA70"/>
<path d="M90.5783 57.7604L93.7206 57.2946L92.5164 60.2471L58.7794 86.6816L56.8477 84.1949L90.5783 57.7604Z" fill="#F7CC7F"/>
<path d="M92.5163 60.2472L95.3637 59.4099L93.7644 61.8525L61.056 87.4875L58.7793 86.6817L92.5163 60.2472Z" fill="#FAE0B2"/>
<path d="M59.3264 82.2496L56.8447 84.1945L58.7785 86.6804L61.2601 84.7356L59.3264 82.2496Z" fill="#50BFA5"/>
<path d="M61.2693 84.7363L58.7793 86.6816L61.056 87.4874L62.5174 86.3417L61.2693 84.7363Z" fill="#96D9C9"/>
<path d="M58.0829 80.6381L56.6152 81.7901L56.8473 84.195L59.331 82.2497L58.0829 80.6381Z" fill="#3C8F7C"/>
<path d="M61.2641 84.7349L62.5146 86.3426L65.4412 84.0491L64.1907 82.4414L61.2641 84.7349Z" fill="#FEF8F8"/>
<path d="M58.0815 80.6399L59.332 82.2476L62.2586 79.954L61.0081 78.3463L58.0815 80.6399Z" fill="#EDDFCA"/>
<path d="M59.3329 82.2506L61.2666 84.7366L64.1932 82.443L62.2594 79.9571L59.3329 82.2506Z" fill="#F2E9DA"/>
<path d="M97.8471 55.62C97.8659 55.5885 99.9482 52.4156 99.9482 52.4156L96.3418 53.681L97.6213 54.235L97.8471 55.62Z" fill="#E86752"/>
<path d="M97.6276 54.2413L99.9482 52.4156L96.3418 53.6873L97.6276 54.2413Z" fill="#D85648"/>
<path d="M65.6154 77.3141C65.6091 77.2827 65.6091 77.2512 65.6154 77.2197C65.7157 76.1935 66.5624 67.594 66.7067 67.2289C66.8384 66.9015 70.6329 61.4434 70.6329 61.4434L72.502 63.9993L68.8454 68.8909C68.7639 69.1993 67.4468 75.0037 67.4468 75.0037C67.4468 75.0037 67.1771 76.0613 67.0579 76.6972C67.1144 76.8483 67.1645 76.9931 67.2147 77.1127C67.3339 77.3645 67.4781 77.5722 67.6098 77.7485C67.7729 77.9689 68.0426 78.4473 68.074 78.5795C68.1116 78.7306 68.1806 79.0391 68.2245 79.2279C68.2621 79.4168 68.3186 79.6308 68.3249 79.7379C68.3311 79.8008 68.3938 79.9204 68.444 80.0086C68.5193 80.1408 68.3938 80.2919 68.2496 80.2478C68.1179 80.2037 68.0113 80.0338 67.9485 79.9204C67.7667 79.6183 67.6726 79.0643 67.6287 79.0894C67.5848 79.1209 67.428 80.0589 67.4029 80.166C67.3778 80.273 67.1896 81.3621 67.083 81.5635C66.9764 81.765 66.8321 81.7272 66.8008 81.6076C66.7694 81.5006 66.9199 79.9708 66.9199 79.9708C66.9199 79.9708 66.9387 79.7756 66.8509 79.8386C66.7631 79.9015 66.6252 81.2865 66.5687 81.488C66.5123 81.6895 66.3743 81.7965 66.2614 81.6328C66.1234 81.4313 66.3617 79.9645 66.3617 79.9645C66.3617 79.9645 66.3868 79.7819 66.3116 79.7945C66.23 79.8134 66.1359 80.9907 66.0732 81.0977C66.0105 81.1984 65.86 81.2362 65.7847 81.0662C65.6969 80.8647 65.9227 79.5553 65.9227 79.5553C65.9227 79.5553 65.9101 79.4483 65.86 79.4861C65.8098 79.5175 65.653 80.5185 65.5526 80.6129C65.4648 80.6885 65.3958 80.6129 65.3958 80.6129C65.2077 80.487 65.4962 79.5364 65.4899 79.058C65.4899 78.5858 65.7032 78.0507 65.6404 77.4904C65.6342 77.4526 65.6216 77.3645 65.6154 77.3141Z" fill="#F8A492"/>
<path d="M67.6602 64.8996L70.9028 67.0841C70.9028 67.0841 72.7342 64.3518 73.7126 63.3824C74.9419 62.161 73.2673 58.4341 72.4708 58.6419C70.7083 59.1141 67.6602 64.8996 67.6602 64.8996Z" fill="#3C8F7C"/>
<path d="M76.1966 49.9982C77.2879 49.526 78.5361 50.1808 78.7932 51.3265C78.9061 51.8239 79.019 52.4534 79.088 53.1396C79.2448 54.8016 78.511 56.4825 77.7583 56.5454C77.0057 56.6021 74.8419 55.683 74.591 53.3285C74.4279 51.8742 75.0551 50.4955 76.1966 49.9982Z" fill="#F7A491"/>
<path d="M75.155 53.4733C75.18 53.8385 74.9605 54.1532 74.6657 54.1784C74.3647 54.2036 74.1013 53.9203 74.0762 53.5552C74.0511 53.19 74.2706 52.8752 74.5654 52.8501C74.8602 52.8249 75.1299 53.1082 75.155 53.4733Z" fill="#F7A491"/>
<path d="M74.5654 52.8501C74.5654 52.8501 75.4937 52.8438 75.6756 52.2016C75.8575 51.5595 76.7104 50.0549 78.3035 50.1808C79.9029 50.3067 76.7042 49.2869 76.585 49.3183C76.4658 49.3498 75.0546 49.6961 75.0546 49.6961C75.0546 49.6961 74.1954 50.867 74.1766 50.974C74.164 51.0811 74.1201 52.2331 74.1201 52.2331L74.5654 52.8501Z" fill="#0E2E35"/>
<path d="M78.4228 54.4554L76.8799 54.5814C76.8799 54.5814 76.9614 55.1668 77.6451 55.1353C78.473 55.0913 78.4228 54.4554 78.4228 54.4554Z" fill="white"/>
</g>
<defs>
<clipPath id="clip0_1970_64469">
<rect width="198" height="110" fill="white" transform="translate(0.5)"/>
</clipPath>
</defs>
</svg>
