<svg width="84" height="84" viewBox="0 0 84 84" fill="none" xmlns="http://www.w3.org/2000/svg">
<rect width="84" height="84" rx="16" fill="#D1E5EF"/>
<path d="M54 37.1005C54 37.5922 53.5815 38 53.0769 38H30.9231C30.4185 38 30 37.5922 30 37.1005C30 36.6087 30.4185 36.2009 30.9231 36.2009H32.1785L32.6462 34.03C33.0892 31.931 34.0123 30 37.68 30H46.32C49.9877 30 50.9108 31.931 51.3538 34.03L51.8215 36.2009H53.0769C53.5815 36.2009 54 36.6087 54 37.1005Z" fill="#395390"/>
<path d="M54.6246 43.6988C54.4385 41.5868 53.8929 39.334 49.9121 39.334H34.088C30.1072 39.334 29.5739 41.5868 29.3755 43.6988L28.681 51.494C28.5942 52.4668 28.9042 53.4396 29.5491 54.1692C30.2064 54.9116 31.1365 55.334 32.1286 55.334H34.46C36.469 55.334 36.8535 54.1436 37.1015 53.3628L37.3495 52.5948C37.6348 51.7116 37.7092 51.494 38.8253 51.494H45.1748C46.2909 51.494 46.3281 51.622 46.6505 52.5948L46.8985 53.3628C47.1466 54.1436 47.531 55.334 49.54 55.334H51.8715C52.8512 55.334 53.7937 54.9116 54.4509 54.1692C55.0958 53.4396 55.4058 52.4668 55.319 51.494L54.6246 43.6988ZM38.2796 46.374H34.5592C34.0508 46.374 33.6291 45.9388 33.6291 45.414C33.6291 44.8892 34.0508 44.454 34.5592 44.454H38.2796C38.7881 44.454 39.2097 44.8892 39.2097 45.414C39.2097 45.9388 38.7881 46.374 38.2796 46.374ZM49.4408 46.374H45.7204C45.212 46.374 44.7903 45.9388 44.7903 45.414C44.7903 44.8892 45.212 44.454 45.7204 44.454H49.4408C49.9493 44.454 50.3709 44.8892 50.3709 45.414C50.3709 45.9388 49.9493 46.374 49.4408 46.374Z" fill="#395390"/>
</svg>
