<svg width="19" height="20" viewBox="0 0 19 20" fill="none" xmlns="http://www.w3.org/2000/svg">
<path d="M12.7299 2.41204C12.7792 2.31345 12.8548 2.2305 12.9485 2.17248C13.0422 2.11446 13.1502 2.08365 13.2604 2.0835H14.4479C14.558 2.08365 14.666 2.11446 14.7597 2.17248C14.8534 2.2305 14.9291 2.31345 14.9783 2.41204L15.7699 3.99537C15.8137 4.08271 15.8352 4.17948 15.8325 4.27711C15.8299 4.37474 15.8032 4.47022 15.7549 4.55508L15.0416 5.80433V10.0002H16.0312C16.1887 10.0002 16.3397 10.0627 16.451 10.1741C16.5624 10.2854 16.6249 10.4364 16.6249 10.5939V11.9793H11.0833V10.5939C11.0833 10.4364 11.1458 10.2854 11.2572 10.1741C11.3685 10.0627 11.5195 10.0002 11.677 10.0002H12.6666V5.80433L11.9533 4.55508C11.9048 4.47028 11.878 4.37484 11.8753 4.27721C11.8725 4.17958 11.8939 4.08277 11.9375 3.99537L12.7291 2.41204H12.7299ZM11.0833 13.1668V15.146C11.0833 15.8809 11.3752 16.5856 11.8948 17.1053C12.4145 17.6249 13.1192 17.9168 13.8541 17.9168C14.589 17.9168 15.2937 17.6249 15.8134 17.1053C16.333 16.5856 16.6249 15.8809 16.6249 15.146V13.1668H11.0833ZM6.98877 2.25133C7.06898 2.19698 7.16127 2.16308 7.25759 2.15259C7.35391 2.1421 7.45133 2.15534 7.54135 2.19116C8.31747 2.49895 8.98878 3.02332 9.47533 3.70182C9.96188 4.38032 10.2432 5.18436 10.2857 6.01819C10.3283 6.85203 10.1303 7.68053 9.71529 8.40502C9.30032 9.12952 8.68586 9.71948 7.9451 10.1047V15.9092C7.9451 16.4416 7.73358 16.9523 7.35707 17.3288C6.98056 17.7053 6.4699 17.9168 5.93744 17.9168C5.40497 17.9168 4.89431 17.7053 4.5178 17.3288C4.14129 16.9523 3.92977 16.4416 3.92977 15.9092V10.1047C3.18901 9.71948 2.57456 9.12952 2.15959 8.40502C1.74462 7.68053 1.54661 6.85203 1.58916 6.01819C1.6317 5.18436 1.91299 4.38032 2.39955 3.70182C2.8861 3.02332 3.5574 2.49895 4.33352 2.19116C4.42355 2.15553 4.52092 2.14246 4.61716 2.15308C4.7134 2.1637 4.80558 2.1977 4.88567 2.25211C4.96576 2.30652 5.03133 2.37968 5.07666 2.46524C5.122 2.55079 5.14572 2.64613 5.14577 2.74295V5.646C5.14577 5.85596 5.22918 6.05732 5.37764 6.20579C5.52611 6.35425 5.72747 6.43766 5.93744 6.43766C6.1474 6.43766 6.34876 6.35425 6.49723 6.20579C6.6457 6.05732 6.7291 5.85596 6.7291 5.646V2.74295C6.7291 2.64617 6.75276 2.55086 6.79802 2.46531C6.84328 2.37976 6.90876 2.30658 6.98877 2.25212V2.25133Z" fill="#283C7C"/>
</svg>
