<svg width="16" height="16" viewBox="0 0 16 16" fill="none" xmlns="http://www.w3.org/2000/svg">
<path d="M10.72 1.60967C10.7614 1.52665 10.8252 1.4568 10.904 1.40794C10.9829 1.35908 11.0738 1.33313 11.1666 1.33301H12.1666C12.2594 1.33313 12.3504 1.35908 12.4292 1.40794C12.5081 1.4568 12.5719 1.52665 12.6133 1.60967L13.28 2.94301C13.3168 3.01655 13.3349 3.09805 13.3327 3.18026C13.3305 3.26248 13.308 3.34288 13.2673 3.41434L12.6666 4.46634V7.99967H13.5C13.6326 7.99967 13.7598 8.05235 13.8535 8.14612C13.9473 8.23989 14 8.36707 14 8.49967V9.66634H9.3333V8.49967C9.3333 8.36707 9.38598 8.23989 9.47975 8.14612C9.57352 8.05235 9.7007 7.99967 9.8333 7.99967H10.6666V4.46634L10.066 3.41434C10.0252 3.34293 10.0026 3.26256 10.0003 3.18034C9.99793 3.09813 10.0159 3.01661 10.0526 2.94301L10.7193 1.60967H10.72ZM9.3333 10.6663V12.333C9.3333 12.9518 9.57914 13.5453 10.0167 13.9829C10.4543 14.4205 11.0478 14.6663 11.6666 14.6663C12.2855 14.6663 12.879 14.4205 13.3166 13.9829C13.7541 13.5453 14 12.9518 14 12.333V10.6663H9.3333ZM5.8853 1.47434C5.95285 1.42857 6.03057 1.40002 6.11168 1.39119C6.19279 1.38236 6.27483 1.39351 6.35064 1.42367C7.00421 1.68287 7.56952 2.12444 7.97925 2.6958C8.38898 3.26717 8.62586 3.94426 8.66168 4.64644C8.69751 5.34862 8.53077 6.0463 8.18132 6.6564C7.83187 7.2665 7.31444 7.76331 6.69064 8.08767V12.9757C6.69064 13.4241 6.51252 13.8541 6.19545 14.1712C5.87839 14.4882 5.44836 14.6663 4.99997 14.6663C4.55158 14.6663 4.12155 14.4882 3.80449 14.1712C3.48743 13.8541 3.30931 13.4241 3.30931 12.9757V8.08767C2.68551 7.76331 2.16807 7.2665 1.81862 6.6564C1.46918 6.0463 1.30244 5.34862 1.33826 4.64644C1.37409 3.94426 1.61097 3.26717 2.0207 2.6958C2.43042 2.12444 2.99573 1.68287 3.64931 1.42367C3.72512 1.39367 3.80712 1.38266 3.88816 1.39161C3.9692 1.40055 4.04683 1.42918 4.11427 1.475C4.18172 1.52081 4.23693 1.58243 4.27511 1.65447C4.31329 1.72652 4.33327 1.80681 4.33331 1.88834V4.33301C4.33331 4.50982 4.40354 4.67939 4.52857 4.80441C4.65359 4.92944 4.82316 4.99967 4.99997 4.99967C5.17678 4.99967 5.34635 4.92944 5.47138 4.80441C5.5964 4.67939 5.66664 4.50982 5.66664 4.33301V1.88834C5.66664 1.80684 5.68656 1.72658 5.72468 1.65454C5.76279 1.5825 5.81793 1.52087 5.8853 1.47501V1.47434Z" fill="#6B6D6C"/>
</svg>
