<svg width="19" height="20" viewBox="0 0 19 20" fill="none" xmlns="http://www.w3.org/2000/svg">
<path d="M7.52067 15.9377V14.7502H3.56234C3.12692 14.7502 2.73109 14.576 2.44609 14.2831C2.15317 13.9981 1.979 13.6022 1.979 13.1668C1.979 12.3514 2.61234 11.6706 3.41192 11.5914C3.45942 11.5835 3.50692 11.5835 3.56234 11.5835H15.4373C15.4928 11.5835 15.5403 11.5835 15.5878 11.5914C15.9678 11.6231 16.3003 11.7893 16.5536 12.0506C16.8782 12.3672 17.0523 12.8185 17.0128 13.3093C16.9415 14.1406 16.1894 14.7502 15.3503 14.7502H11.479V15.9377C11.479 17.0302 10.5923 17.9168 9.49984 17.9168C8.40734 17.9168 7.52067 17.0302 7.52067 15.9377Z" fill="#283C7C"/>
<path d="M13.609 2.0835H10.4898C10.2681 2.0835 10.094 2.25766 10.094 2.47933V3.66683C10.094 3.99141 9.8248 4.26058 9.50021 4.26058C9.42896 4.26058 9.36563 4.24475 9.3023 4.221C9.07271 4.14183 8.90646 3.92016 8.90646 3.66683V2.47933C8.90646 2.25766 8.7323 2.0835 8.51063 2.0835H7.31521C7.09354 2.0835 6.91938 2.25766 6.91938 2.47933V6.04183C6.91938 6.36641 6.65021 6.63558 6.32563 6.63558C6.00104 6.63558 5.73188 6.36641 5.73188 6.04183V4.26058V2.47933C5.73188 2.26558 5.57354 2.09933 5.35979 2.0835H5.33604C3.95854 2.11516 2.88979 3.31058 3.03229 4.696L3.32521 10.0397C3.34896 10.4593 3.69729 10.7918 4.11688 10.7918H14.8835C15.3031 10.7918 15.6515 10.4593 15.6752 10.0397L15.9681 4.696C16.1106 3.29475 15.0102 2.0835 13.609 2.0835Z" fill="#283C7C"/>
</svg>
