<svg width="60" height="61" viewBox="0 0 60 61" fill="none" xmlns="http://www.w3.org/2000/svg">
<circle cx="30" cy="30.5" r="30" fill="url(#paint0_linear_871_23146)"/>
<path d="M41.4351 34.7127C41.7721 34.7127 42.037 34.9776 42.037 35.3146V36.5183C42.037 38.5164 40.424 40.1294 38.4259 40.1294C38.4259 38.1433 36.8009 36.5183 34.8147 36.5183C32.8286 36.5183 31.2036 38.1433 31.2036 40.1294H28.7962C28.7962 38.1433 27.1712 36.5183 25.1851 36.5183C23.199 36.5183 21.574 38.1433 21.574 40.1294C19.5759 40.1294 17.9629 38.5164 17.9629 36.5183V34.1109C17.9629 33.4489 18.5046 32.9072 19.1666 32.9072H30.6018C32.2629 32.9072 33.611 31.559 33.611 29.8979V23.2776C33.611 22.6155 34.1527 22.0739 34.8147 22.0739H35.8259C36.6925 22.0739 37.487 22.5433 37.9203 23.2896L38.6907 24.6377C38.799 24.8303 38.6546 25.0831 38.4259 25.0831C36.7647 25.0831 35.4166 26.4313 35.4166 28.0924V31.7035C35.4166 33.3646 36.7647 34.7127 38.4259 34.7127H41.4351Z" fill="white"/>
<path d="M25.1851 42.5367C26.5147 42.5367 27.5925 41.4589 27.5925 40.1293C27.5925 38.7998 26.5147 37.7219 25.1851 37.7219C23.8555 37.7219 22.7777 38.7998 22.7777 40.1293C22.7777 41.4589 23.8555 42.5367 25.1851 42.5367Z" fill="white"/>
<path d="M34.8148 42.5367C36.1443 42.5367 37.2222 41.4589 37.2222 40.1293C37.2222 38.7998 36.1443 37.7219 34.8148 37.7219C33.4852 37.7219 32.4073 38.7998 32.4073 40.1293C32.4073 41.4589 33.4852 42.5367 34.8148 42.5367Z" fill="white"/>
<path d="M42.037 31.1377V32.9072H38.4259C37.7638 32.9072 37.2222 32.3655 37.2222 31.7035V28.0924C37.2222 27.4303 37.7638 26.8887 38.4259 26.8887H39.9786L41.724 29.9461C41.9286 30.3072 42.037 30.7164 42.037 31.1377Z" fill="white"/>
<path d="M31.2999 18.4626H22.4046C20.2499 18.4626 18.4444 20.0034 18.0471 22.0497H23.3073C23.7647 22.0497 24.1259 22.4228 24.1259 22.8802C24.1259 23.3376 23.7647 23.6988 23.3073 23.6988H17.9629V25.3599H21.0925C21.5499 25.3599 21.9231 25.733 21.9231 26.1904C21.9231 26.6478 21.5499 27.0089 21.0925 27.0089H17.9629V28.6701H18.8897C19.3471 28.6701 19.7203 29.0432 19.7203 29.5006C19.7203 29.958 19.3471 30.3191 18.8897 30.3191H17.9629V30.596C17.9629 31.258 18.5046 31.7997 19.1666 31.7997H30.1805C31.4083 31.7997 32.4073 30.8006 32.4073 29.5728V19.5701C32.4073 18.9562 31.9138 18.4626 31.2999 18.4626Z" fill="white"/>
<path d="M18.0472 22.0497H17.8666H16.687C16.2296 22.0497 15.8564 22.4228 15.8564 22.8802C15.8564 23.3376 16.2296 23.6988 16.687 23.6988H17.7824H17.9629V22.9043C17.9629 22.6154 17.999 22.3265 18.0472 22.0497Z" fill="white"/>
<path d="M17.7824 25.3599H16.687C16.2296 25.3599 15.8564 25.733 15.8564 26.1904C15.8564 26.6478 16.2296 27.0089 16.687 27.0089H17.7824H17.9629V25.3599H17.7824Z" fill="white"/>
<path d="M17.7824 28.67H16.687C16.2296 28.67 15.8564 29.0432 15.8564 29.5006C15.8564 29.958 16.2296 30.3191 16.687 30.3191H17.7824H17.9629V28.67H17.7824Z" fill="white"/>
<defs>
<linearGradient id="paint0_linear_871_23146" x1="30" y1="0.5" x2="30" y2="67.1667" gradientUnits="userSpaceOnUse">
<stop stop-color="#AA283E"/>
<stop offset="1" stop-color="#EA7272"/>
</linearGradient>
</defs>
</svg>
