<svg width="60" height="61" viewBox="0 0 60 61" fill="none" xmlns="http://www.w3.org/2000/svg">
<circle cx="30" cy="30.5" r="30" fill="url(#paint0_linear_859_25316)"/>
<path d="M27.5 38V36.5H22.5C21.95 36.5 21.45 36.28 21.09 35.91C20.72 35.55 20.5 35.05 20.5 34.5C20.5 33.47 21.3 32.61 22.31 32.51C22.37 32.5 22.43 32.5 22.5 32.5H37.5C37.57 32.5 37.63 32.5 37.69 32.51C38.17 32.55 38.59 32.76 38.91 33.09C39.32 33.49 39.54 34.06 39.49 34.68C39.4 35.73 38.45 36.5 37.39 36.5H32.5V38C32.5 39.38 31.38 40.5 30 40.5C28.62 40.5 27.5 39.38 27.5 38Z" fill="white"/>
<path d="M35.19 20.5H31.25C30.97 20.5 30.75 20.72 30.75 21V22.5C30.75 22.91 30.41 23.25 30 23.25C29.91 23.25 29.83 23.23 29.75 23.2C29.46 23.1 29.25 22.82 29.25 22.5V21C29.25 20.72 29.03 20.5 28.75 20.5H27.24C26.96 20.5 26.74 20.72 26.74 21V25.5C26.74 25.91 26.4 26.25 25.99 26.25C25.58 26.25 25.24 25.91 25.24 25.5V23.25V21C25.24 20.73 25.04 20.52 24.77 20.5H24.74C23 20.54 21.65 22.05 21.83 23.8L22.2 30.55C22.23 31.08 22.67 31.5 23.2 31.5H36.8C37.33 31.5 37.77 31.08 37.8 30.55L38.17 23.8C38.35 22.03 36.96 20.5 35.19 20.5Z" fill="white"/>
<defs>
<linearGradient id="paint0_linear_859_25316" x1="30" y1="0.5" x2="30" y2="60.5" gradientUnits="userSpaceOnUse">
<stop stop-color="#283C7C"/>
<stop offset="1" stop-color="#4A61AD"/>
</linearGradient>
</defs>
</svg>
