<svg width="61" height="61" viewBox="0 0 61 61" fill="none" xmlns="http://www.w3.org/2000/svg">
<ellipse cx="30.5" cy="30.5" rx="30" ry="30.4167" fill="url(#paint0_linear_859_25280)"/>
<path d="M38.6 27.6814C36.79 27.6814 36.05 26.3837 36.95 24.7919C37.47 23.8692 37.16 22.6931 36.25 22.1659L34.52 21.1621C33.73 20.6856 32.71 20.9695 32.24 21.7705L32.13 21.9631C31.23 23.5549 29.75 23.5549 28.84 21.9631L28.73 21.7705C28.28 20.9695 27.26 20.6856 26.47 21.1621L24.74 22.1659C23.83 22.6931 23.52 23.8794 24.04 24.802C24.95 26.3837 24.21 27.6814 22.4 27.6814C21.36 27.6814 20.5 28.5432 20.5 29.6078V31.3923C20.5 32.4467 21.35 33.3187 22.4 33.3187C24.21 33.3187 24.95 34.6164 24.04 36.2082C23.52 37.1309 23.83 38.307 24.74 38.8342L26.47 39.838C27.26 40.3145 28.28 40.0306 28.75 39.2296L28.86 39.037C29.76 37.4452 31.24 37.4452 32.15 39.037L32.26 39.2296C32.73 40.0306 33.75 40.3145 34.54 39.838L36.27 38.8342C37.18 38.307 37.49 37.1207 36.97 36.2082C36.06 34.6164 36.8 33.3187 38.61 33.3187C39.65 33.3187 40.51 32.4569 40.51 31.3923V29.6078C40.5 28.5534 39.65 27.6814 38.6 27.6814ZM30.5 33.7952C28.71 33.7952 27.25 32.3149 27.25 30.5C27.25 28.6852 28.71 27.2049 30.5 27.2049C32.29 27.2049 33.75 28.6852 33.75 30.5C33.75 32.3149 32.29 33.7952 30.5 33.7952Z" fill="white"/>
<defs>
<linearGradient id="paint0_linear_859_25280" x1="30.5" y1="0.083374" x2="30.5" y2="60.9167" gradientUnits="userSpaceOnUse">
<stop stop-color="#283C7C"/>
<stop offset="1" stop-color="#4A61AD"/>
</linearGradient>
</defs>
</svg>
