<svg width="61" height="61" viewBox="0 0 61 61" fill="none" xmlns="http://www.w3.org/2000/svg">
<circle cx="30.5" cy="30.5" r="30" fill="url(#paint0_linear_859_25311)"/>
<path d="M38.5123 21.5C38.5123 21.2348 38.4069 20.9804 38.2194 20.7929C38.0319 20.6054 37.7775 20.5 37.5123 20.5H32.5123C32.2471 20.5 31.9927 20.6054 31.8052 20.7929C31.6176 20.9804 31.5123 21.2348 31.5123 21.5C31.5123 21.7652 31.6176 22.0196 31.8052 22.2071C31.9927 22.3946 32.2471 22.5 32.5123 22.5H35.0983L30.0123 27.586L28.2193 25.793C28.0318 25.6055 27.7775 25.5002 27.5123 25.5002C27.2471 25.5002 26.9928 25.6055 26.8053 25.793L20.8053 31.793C20.7098 31.8852 20.6336 31.9956 20.5812 32.1176C20.5288 32.2396 20.5012 32.3708 20.5 32.5036C20.4989 32.6364 20.5242 32.7681 20.5745 32.891C20.6247 33.0139 20.699 33.1255 20.7929 33.2194C20.8868 33.3133 20.9984 33.3875 21.1213 33.4378C21.2442 33.4881 21.3759 33.5134 21.5087 33.5123C21.6415 33.5111 21.7727 33.4835 21.8947 33.4311C22.0167 33.3787 22.127 33.3025 22.2193 33.207L27.5123 27.914L29.3053 29.707C29.4928 29.8945 29.7471 29.9998 30.0123 29.9998C30.2775 29.9998 30.5318 29.8945 30.7193 29.707L36.5123 23.914V26.5C36.5123 26.7652 36.6176 27.0196 36.8052 27.2071C36.9927 27.3946 37.2471 27.5 37.5123 27.5C37.7775 27.5 38.0319 27.3946 38.2194 27.2071C38.4069 27.0196 38.5123 26.7652 38.5123 26.5V21.5ZM37.9923 29.333C38.2423 29.083 38.1573 28.66 37.8113 28.584C37.0944 28.4269 36.3481 28.47 35.654 28.7087C34.96 28.9473 34.3449 29.3722 33.8762 29.937C33.4074 30.5017 33.1031 31.1845 32.9964 31.9107C32.8897 32.6368 32.9848 33.3783 33.2713 34.054L29.5303 37.796C29.2571 38.0789 29.1059 38.4578 29.1093 38.8511C29.1127 39.2444 29.2704 39.6206 29.5486 39.8987C29.8267 40.1768 30.2029 40.3346 30.5962 40.338C30.9895 40.3414 31.3684 40.1902 31.6513 39.917L35.3933 36.176C36.069 36.4625 36.8105 36.5576 37.5366 36.4509C38.2628 36.3442 38.9455 36.0398 39.5103 35.5711C40.075 35.1024 40.5 34.4873 40.7386 33.7933C40.9773 33.0992 41.0204 32.3529 40.8633 31.636C40.7873 31.289 40.3643 31.204 40.1133 31.454L38.3703 33.2C38.089 33.4814 37.7075 33.6395 37.3096 33.6396C36.9118 33.6397 36.5302 33.4818 36.2488 33.2005C35.9674 32.9192 35.8093 32.5377 35.8092 32.1399C35.8091 31.742 35.967 31.3604 36.2483 31.079L37.9933 29.334L37.9923 29.333Z" fill="white"/>
<defs>
<linearGradient id="paint0_linear_859_25311" x1="30.5" y1="0.5" x2="30.5" y2="60.5" gradientUnits="userSpaceOnUse">
<stop stop-color="#283C7C"/>
<stop offset="1" stop-color="#4A61AD"/>
</linearGradient>
</defs>
</svg>
