<svg width="24" height="24" viewBox="0 0 24 24" fill="none" xmlns="http://www.w3.org/2000/svg">
<path d="M8.70898 15.5718C9.59405 14.7227 10.7731 14.2485 11.9996 14.2485C13.2261 14.2485 14.4052 14.7227 15.2902 15.5718" stroke="black" stroke-width="2" stroke-linecap="round" stroke-linejoin="round"/>
<path d="M5.53125 12.3845C7.26132 10.6964 9.58278 9.75146 12 9.75146C14.4172 9.75146 16.7387 10.6964 18.4688 12.3845" stroke="black" stroke-width="2" stroke-linecap="round" stroke-linejoin="round"/>
<path d="M2.35352 9.20638C4.92494 6.67234 8.39018 5.25183 12.0004 5.25183C15.6106 5.25183 19.0758 6.67234 21.6473 9.20638" stroke="black" stroke-width="2" stroke-linecap="round" stroke-linejoin="round"/>
<path d="M12 19.875C12.6213 19.875 13.125 19.3713 13.125 18.75C13.125 18.1287 12.6213 17.625 12 17.625C11.3787 17.625 10.875 18.1287 10.875 18.75C10.875 19.3713 11.3787 19.875 12 19.875Z" fill="black"/>
</svg>
