<svg width="125" height="107" viewBox="0 0 125 107" fill="none" xmlns="http://www.w3.org/2000/svg">
<path d="M24.7309 84.6611H3.22461V107H24.7309V84.6611Z" fill="#9C9E9D"/>
<path d="M121.775 84.6611H100.269V107H121.775V84.6611Z" fill="#9C9E9D"/>
<path d="M18.1676 26.044L16.6781 30.1232H5.94919C4.82302 30.1232 3.90271 29.2059 3.90271 28.0836C3.90271 26.9612 4.82302 26.044 5.94919 26.044H18.1676Z" fill="#9C9E9D"/>
<path d="M121.097 28.0836C121.097 29.2059 120.177 30.1232 119.051 30.1232H108.322L106.832 26.044H119.051C120.177 26.044 121.097 26.9612 121.097 28.0836Z" fill="#9C9E9D"/>
<path d="M112.996 55.1534H124.5C124.5 53.6569 123.87 51.388 123.12 50.0967L114.849 36.1454L112.669 30.1232L111.192 26.044L103.781 5.62396C102.655 2.52233 99.0461 0 95.7402 0H29.2598C25.9539 0 22.3453 2.52233 21.2191 5.62396L13.8082 26.044L12.3309 30.1232L10.1512 36.1454L1.88047 50.0967C1.12969 51.388 0.5 53.6569 0.5 55.1534H12.0039C19.3906 55.1534 25.3727 61.1153 25.3727 68.4771H0.5V78.5423L15.5641 84.6611L24.7309 88.3902L28.9328 90.0919H39.8312L62.5 81.2577L85.1687 90.0919H96.0672L100.269 88.3902L109.436 84.6611L124.5 78.5423V68.4771H99.6395C99.6395 61.1153 105.621 55.1534 112.996 55.1534ZM87.8934 62.3583H64.5465V68.4771C64.5465 69.5995 63.6262 70.5046 62.5 70.5046C61.3738 70.5046 60.4535 69.5995 60.4535 68.4771V62.3583H37.1066C35.9805 62.3583 35.0602 61.4532 35.0602 60.3187C35.0602 59.1964 35.9805 58.2912 37.1066 58.2912H60.4535V52.1725C60.4535 51.0501 61.3738 50.1329 62.5 50.1329C63.6262 50.1329 64.5465 51.0501 64.5465 52.1725V58.2912H87.8934C89.0195 58.2912 89.9398 59.1964 89.9398 60.3187C89.9398 61.4532 89.0195 62.3583 87.8934 62.3583ZM14.4984 36.1454L16.6781 30.1232L18.1676 26.044L25.0699 6.99977C25.6027 5.52741 27.6734 4.07918 29.2598 4.07918H95.7402C97.3266 4.07918 99.3973 5.52741 99.9301 6.99977L106.832 26.044L108.322 30.1232L110.502 36.1454H14.4984Z" fill="#9C9E9D"/>
<path d="M87.8934 78.5423L85.1688 90.0919H39.8313L37.1067 78.5423H87.8934Z" fill="#9C9E9D"/>
<path d="M26.2082 78.5423L28.9328 90.0919H0.5V78.5423H26.2082Z" fill="#9C9E9D"/>
<path d="M124.5 78.5423V90.0919H96.0671L98.8039 78.5423H124.5Z" fill="#9C9E9D"/>
</svg>
