<svg width="16" height="16" viewBox="0 0 16 16" fill="none" xmlns="http://www.w3.org/2000/svg">
<path d="M13.4 6.1463C12.1934 6.1463 11.7 5.29297 12.3 4.2463C12.6467 3.63963 12.44 2.8663 11.8334 2.51963L10.68 1.85963C10.1534 1.5463 9.47337 1.73297 9.16004 2.25963L9.08671 2.3863C8.48671 3.43297 7.50004 3.43297 6.89337 2.3863L6.82004 2.25963C6.52004 1.73297 5.84004 1.5463 5.31337 1.85963L4.16004 2.51963C3.55337 2.8663 3.34671 3.6463 3.69337 4.25297C4.30004 5.29297 3.80671 6.1463 2.60004 6.1463C1.90671 6.1463 1.33337 6.71297 1.33337 7.41297V8.5863C1.33337 9.27963 1.90004 9.85297 2.60004 9.85297C3.80671 9.85297 4.30004 10.7063 3.69337 11.753C3.34671 12.3596 3.55337 13.133 4.16004 13.4796L5.31337 14.1396C5.84004 14.453 6.52004 14.2663 6.83337 13.7396L6.90671 13.613C7.50671 12.5663 8.49337 12.5663 9.10004 13.613L9.17337 13.7396C9.48671 14.2663 10.1667 14.453 10.6934 14.1396L11.8467 13.4796C12.4534 13.133 12.66 12.353 12.3134 11.753C11.7067 10.7063 12.2 9.85297 13.4067 9.85297C14.1 9.85297 14.6734 9.2863 14.6734 8.5863V7.41297C14.6667 6.71963 14.1 6.1463 13.4 6.1463ZM8.00004 10.1663C6.80671 10.1663 5.83337 9.19297 5.83337 7.99963C5.83337 6.8063 6.80671 5.83297 8.00004 5.83297C9.19337 5.83297 10.1667 6.8063 10.1667 7.99963C10.1667 9.19297 9.19337 10.1663 8.00004 10.1663Z" fill="#6B6D6C"/>
</svg>
