<svg width="19" height="20" viewBox="0 0 19 20" fill="none" xmlns="http://www.w3.org/2000/svg">
<path d="M15.9127 7.79897C14.4797 7.79897 13.8939 6.78564 14.6064 5.54272C15.0181 4.82231 14.7727 3.90397 14.0522 3.49231L12.6827 2.70856C12.0572 2.33647 11.2497 2.55814 10.8777 3.18356L10.7906 3.33397C10.0781 4.57689 8.90641 4.57689 8.186 3.33397L8.09891 3.18356C7.74266 2.55814 6.93516 2.33647 6.30975 2.70856L4.94016 3.49231C4.21975 3.90397 3.97433 4.83022 4.386 5.55064C5.10641 6.78564 4.52058 7.79897 3.08766 7.79897C2.26433 7.79897 1.5835 8.47189 1.5835 9.30314V10.6965C1.5835 11.5198 2.25641 12.2006 3.08766 12.2006C4.52058 12.2006 5.10641 13.214 4.386 14.4569C3.97433 15.1773 4.21975 16.0956 4.94016 16.5073L6.30975 17.2911C6.93516 17.6631 7.74266 17.4415 8.11475 16.8161L8.20183 16.6656C8.91433 15.4227 10.086 15.4227 10.8064 16.6656L10.8935 16.8161C11.2656 17.4415 12.0731 17.6631 12.6985 17.2911L14.0681 16.5073C14.7885 16.0956 15.0339 15.1694 14.6222 14.4569C13.9018 13.214 14.4877 12.2006 15.9206 12.2006C16.7439 12.2006 17.4247 11.5277 17.4247 10.6965V9.30314C17.4168 8.47981 16.7439 7.79897 15.9127 7.79897ZM9.50016 12.5727C8.08308 12.5727 6.92725 11.4169 6.92725 9.99981C6.92725 8.58272 8.08308 7.42689 9.50016 7.42689C10.9172 7.42689 12.0731 8.58272 12.0731 9.99981C12.0731 11.4169 10.9172 12.5727 9.50016 12.5727Z" fill="#283C7C"/>
</svg>
