<svg width="19" height="20" viewBox="0 0 19 20" fill="none" xmlns="http://www.w3.org/2000/svg">
<path d="M8.31234 13.9582C7.87692 13.9582 7.50431 13.8033 7.1945 13.4935C6.88417 13.1831 6.729 12.8103 6.729 12.3748V7.62484C6.729 7.18942 6.88417 6.81655 7.1945 6.50621C7.50431 6.19641 7.87692 6.0415 8.31234 6.0415H10.6873C11.1228 6.0415 11.4956 6.19641 11.806 6.50621C12.1158 6.81655 12.2707 7.18942 12.2707 7.62484V12.3748C12.2707 12.8103 12.1158 13.1831 11.806 13.4935C11.4956 13.8033 11.1228 13.9582 10.6873 13.9582H8.31234ZM3.95817 13.9582H1.58317C1.35886 13.9582 1.17098 13.8822 1.0195 13.7302C0.867504 13.5787 0.791504 13.3908 0.791504 13.1665C0.791504 12.9422 0.867504 12.754 1.0195 12.602C1.17098 12.4506 1.35886 12.3748 1.58317 12.3748H3.95817V10.7915H2.37484C1.93942 10.7915 1.56681 10.6363 1.257 10.326C0.946671 10.0162 0.791504 9.64359 0.791504 9.20817V7.62484C0.791504 7.18942 0.946671 6.81655 1.257 6.50621C1.56681 6.19641 1.93942 6.0415 2.37484 6.0415H4.74984C4.97414 6.0415 5.1623 6.11724 5.3143 6.26871C5.46577 6.42071 5.5415 6.60887 5.5415 6.83317C5.5415 7.05748 5.46577 7.24536 5.3143 7.39684C5.1623 7.54884 4.97414 7.62484 4.74984 7.62484H2.37484V9.20817H3.95817C4.39359 9.20817 4.7662 9.36307 5.076 9.67288C5.38634 9.98321 5.5415 10.3561 5.5415 10.7915V12.3748C5.5415 12.8103 5.38634 13.1831 5.076 13.4935C4.7662 13.8033 4.39359 13.9582 3.95817 13.9582ZM16.6248 13.9582H14.2498C14.0255 13.9582 13.8376 13.8822 13.6862 13.7302C13.5342 13.5787 13.4582 13.3908 13.4582 13.1665C13.4582 12.9422 13.5342 12.754 13.6862 12.602C13.8376 12.4506 14.0255 12.3748 14.2498 12.3748H16.6248V10.7915H15.0415C14.6061 10.7915 14.2332 10.6363 13.9229 10.326C13.6131 10.0162 13.4582 9.64359 13.4582 9.20817V7.62484C13.4582 7.18942 13.6131 6.81655 13.9229 6.50621C14.2332 6.19641 14.6061 6.0415 15.0415 6.0415H17.4165C17.6408 6.0415 17.8287 6.11724 17.9802 6.26871C18.1322 6.42071 18.2082 6.60887 18.2082 6.83317C18.2082 7.05748 18.1322 7.24536 17.9802 7.39684C17.8287 7.54884 17.6408 7.62484 17.4165 7.62484H15.0415V9.20817H16.6248C17.0603 9.20817 17.4331 9.36307 17.7435 9.67288C18.0533 9.98321 18.2082 10.3561 18.2082 10.7915V12.3748C18.2082 12.8103 18.0533 13.1831 17.7435 13.4935C17.4331 13.8033 17.0603 13.9582 16.6248 13.9582ZM8.31234 12.3748H10.6873V7.62484H8.31234V12.3748Z" fill="#283C7C"/>
</svg>
