<svg width="19" height="20" viewBox="0 0 19 20" fill="none" xmlns="http://www.w3.org/2000/svg">
<path d="M15.4374 6.43749L14.2578 7.61707L11.8828 5.24207L13.0624 4.06249C13.3949 3.72999 13.8224 3.57166 14.2499 3.57166C14.6774 3.57166 15.1049 3.72999 15.4374 4.06249C16.0945 4.71957 16.0945 5.78041 15.4374 6.43749Z" fill="#283C7C"/>
<path d="M13.704 8.17914L5.14613 16.7291C4.48905 17.3862 3.42822 17.3862 2.77113 16.7291C2.11405 16.0721 2.11405 15.0112 2.77113 14.3541L11.3291 5.80414L13.704 8.17914Z" fill="#283C7C"/>
<path d="M7.87683 3.27085L8.20142 2.17043C8.23308 2.06751 8.20142 1.95668 8.13017 1.87751C8.05892 1.79835 7.93225 1.76668 7.82933 1.79835L6.72892 2.12293L5.6285 1.79835C5.52558 1.76668 5.41475 1.79835 5.33558 1.8696C5.25642 1.94876 5.23267 2.0596 5.26433 2.16251L5.581 3.27085L5.25642 4.37126C5.22475 4.47418 5.25642 4.58501 5.32767 4.66418C5.40683 4.74335 5.51767 4.7671 5.62058 4.73543L6.72892 4.41876L7.82933 4.74335C7.861 4.75126 7.88475 4.75918 7.91642 4.75918C7.99558 4.75918 8.06683 4.72751 8.13017 4.6721C8.20933 4.59293 8.23308 4.4821 8.20142 4.37918L7.87683 3.27085Z" fill="#283C7C"/>
<path d="M4.71082 8.02085L5.0354 6.92043C5.06707 6.81751 5.0354 6.70668 4.96415 6.62751C4.88498 6.54835 4.77415 6.5246 4.67123 6.55626L3.5629 6.87293L2.46248 6.54835C2.35957 6.51668 2.24873 6.54835 2.16957 6.6196C2.0904 6.69876 2.06665 6.8096 2.09832 6.91251L2.41498 8.02085L2.0904 9.12126C2.05873 9.22418 2.0904 9.33501 2.16165 9.41418C2.24082 9.49335 2.35165 9.5171 2.45457 9.48543L3.55498 9.16085L4.6554 9.48543C4.67915 9.49335 4.71082 9.49335 4.74248 9.49335C4.82165 9.49335 4.8929 9.46168 4.95623 9.40626C5.0354 9.3271 5.05915 9.21626 5.02748 9.11335L4.71082 8.02085Z" fill="#283C7C"/>
<path d="M16.585 11.9792L16.9095 10.8788C16.9412 10.7759 16.9095 10.665 16.8383 10.5859C16.7591 10.5067 16.6483 10.4829 16.5454 10.5146L15.445 10.8392L14.3445 10.5146C14.2416 10.4829 14.1308 10.5146 14.0516 10.5859C13.9725 10.665 13.9487 10.7759 13.9804 10.8788L14.305 11.9792L13.9804 13.0796C13.9487 13.1825 13.9804 13.2934 14.0516 13.3725C14.1308 13.4517 14.2416 13.4754 14.3445 13.4438L15.445 13.1192L16.5454 13.4438C16.5691 13.4517 16.6008 13.4517 16.6325 13.4517C16.7116 13.4517 16.7829 13.42 16.8462 13.3646C16.9254 13.2854 16.9491 13.1746 16.9175 13.0717L16.585 11.9792Z" fill="#283C7C"/>
</svg>
