<svg width="60" height="61" viewBox="0 0 60 61" fill="none" xmlns="http://www.w3.org/2000/svg">
<circle cx="30" cy="30.5" r="30" fill="url(#paint0_linear_859_25335)"/>
<path d="M37.5 26L36.01 27.49L33.01 24.49L34.5 23C34.92 22.58 35.46 22.38 36 22.38C36.54 22.38 37.08 22.58 37.5 23C38.33 23.83 38.33 25.17 37.5 26Z" fill="white"/>
<path d="M35.31 28.2L24.5 39C23.67 39.83 22.33 39.83 21.5 39C20.67 38.17 20.67 36.83 21.5 36L32.31 25.2L35.31 28.2Z" fill="white"/>
<path d="M27.95 22L28.36 20.61C28.4 20.48 28.36 20.34 28.27 20.24C28.18 20.14 28.02 20.1 27.89 20.14L26.5 20.55L25.11 20.14C24.98 20.1 24.84 20.14 24.74 20.23C24.64 20.33 24.61 20.47 24.65 20.6L25.05 22L24.64 23.39C24.6 23.52 24.64 23.66 24.73 23.76C24.83 23.86 24.97 23.89 25.1 23.85L26.5 23.45L27.89 23.86C27.93 23.87 27.96 23.88 28 23.88C28.1 23.88 28.19 23.84 28.27 23.77C28.37 23.67 28.4 23.53 28.36 23.4L27.95 22Z" fill="white"/>
<path d="M23.95 28L24.36 26.61C24.4 26.48 24.36 26.34 24.27 26.24C24.17 26.14 24.03 26.11 23.9 26.15L22.5 26.55L21.11 26.14C20.98 26.1 20.84 26.14 20.74 26.23C20.64 26.33 20.61 26.47 20.65 26.6L21.05 28L20.64 29.39C20.6 29.52 20.64 29.66 20.73 29.76C20.83 29.86 20.97 29.89 21.1 29.85L22.49 29.44L23.88 29.85C23.91 29.86 23.95 29.86 23.99 29.86C24.09 29.86 24.18 29.82 24.26 29.75C24.36 29.65 24.39 29.51 24.35 29.38L23.95 28Z" fill="white"/>
<path d="M38.95 33L39.36 31.61C39.4 31.48 39.36 31.34 39.27 31.24C39.17 31.14 39.03 31.11 38.9 31.15L37.51 31.56L36.12 31.15C35.99 31.11 35.85 31.15 35.75 31.24C35.65 31.34 35.62 31.48 35.66 31.61L36.07 33L35.66 34.39C35.62 34.52 35.66 34.66 35.75 34.76C35.85 34.86 35.99 34.89 36.12 34.85L37.51 34.44L38.9 34.85C38.93 34.86 38.97 34.86 39.01 34.86C39.11 34.86 39.2 34.82 39.28 34.75C39.38 34.65 39.41 34.51 39.37 34.38L38.95 33Z" fill="white"/>
<defs>
<linearGradient id="paint0_linear_859_25335" x1="30" y1="0.5" x2="30" y2="60.5" gradientUnits="userSpaceOnUse">
<stop stop-color="#283C7C"/>
<stop offset="1" stop-color="#4A61AD"/>
</linearGradient>
</defs>
</svg>
