<svg width="60" height="61" viewBox="0 0 60 61" fill="none" xmlns="http://www.w3.org/2000/svg">
<circle cx="30" cy="30.5" r="30" fill="url(#paint0_linear_859_25276)"/>
<path d="M34.08 20.915C34.1421 20.7905 34.2377 20.6857 34.3561 20.6124C34.4744 20.5391 34.6108 20.5002 34.75 20.5H36.25C36.3891 20.5002 36.5255 20.5391 36.6439 20.6124C36.7622 20.6857 36.8578 20.7905 36.92 20.915L37.92 22.915C37.9752 23.0253 38.0023 23.1476 37.999 23.2709C37.9957 23.3942 37.962 23.5148 37.901 23.622L37 25.2V30.5H38.25C38.4489 30.5 38.6396 30.579 38.7803 30.7197C38.9209 30.8603 39 31.0511 39 31.25V33H32V31.25C32 31.0511 32.079 30.8603 32.2196 30.7197C32.3603 30.579 32.551 30.5 32.75 30.5H34V25.2L33.099 23.622C33.0377 23.5149 33.0039 23.3943 33.0004 23.271C32.9969 23.1477 33.0239 23.0254 33.079 22.915L34.079 20.915H34.08ZM32 34.5V37C32 37.9283 32.3687 38.8185 33.0251 39.4749C33.6815 40.1313 34.5717 40.5 35.5 40.5C36.4282 40.5 37.3185 40.1313 37.9748 39.4749C38.6312 38.8185 39 37.9283 39 37V34.5H32ZM26.828 20.712C26.9293 20.6433 27.0458 20.6005 27.1675 20.5873C27.2892 20.574 27.4122 20.5908 27.526 20.636C28.5063 21.0248 29.3543 21.6871 29.9689 22.5442C30.5835 23.4012 30.9388 24.4169 30.9925 25.4701C31.0463 26.5234 30.7962 27.5699 30.272 28.4851C29.7478 29.4002 28.9717 30.1455 28.036 30.632V37.964C28.036 38.6366 27.7688 39.2816 27.2932 39.7572C26.8176 40.2328 26.1725 40.5 25.5 40.5C24.8274 40.5 24.1823 40.2328 23.7067 39.7572C23.2311 39.2816 22.964 38.6366 22.964 37.964V30.632C22.0283 30.1455 21.2521 29.4002 20.7279 28.4851C20.2038 27.5699 19.9537 26.5234 20.0074 25.4701C20.0611 24.4169 20.4165 23.4012 21.031 22.5442C21.6456 21.6871 22.4936 21.0248 23.474 20.636C23.5877 20.591 23.7107 20.5745 23.8322 20.5879C23.9538 20.6013 24.0702 20.6443 24.1714 20.713C24.2726 20.7817 24.3554 20.8741 24.4127 20.9822C24.4699 21.0903 24.4999 21.2107 24.5 21.333V25C24.5 25.2652 24.6053 25.5196 24.7929 25.7071C24.9804 25.8946 25.2347 26 25.5 26C25.7652 26 26.0195 25.8946 26.2071 25.7071C26.3946 25.5196 26.5 25.2652 26.5 25V21.333C26.5 21.2107 26.5298 21.0904 26.587 20.9823C26.6442 20.8742 26.7269 20.7818 26.828 20.713V20.712Z" fill="white"/>
<defs>
<linearGradient id="paint0_linear_859_25276" x1="30" y1="0.5" x2="30" y2="60.5" gradientUnits="userSpaceOnUse">
<stop stop-color="#283C7C"/>
<stop offset="1" stop-color="#4A61AD"/>
</linearGradient>
</defs>
</svg>
