<svg width="19" height="20" viewBox="0 0 19 20" fill="none" xmlns="http://www.w3.org/2000/svg">
<path d="M15.8432 2.87516C15.8432 2.6652 15.7598 2.46384 15.6114 2.31537C15.4629 2.1669 15.2615 2.0835 15.0516 2.0835H11.0932C10.8833 2.0835 10.6819 2.1669 10.5334 2.31537C10.385 2.46384 10.3016 2.6652 10.3016 2.87516C10.3016 3.08513 10.385 3.28649 10.5334 3.43496C10.6819 3.58342 10.8833 3.66683 11.0932 3.66683H13.1405L9.11406 7.69325L7.6946 6.27379C7.54614 6.12537 7.34481 6.042 7.13489 6.042C6.92497 6.042 6.72364 6.12537 6.57518 6.27379L1.82518 11.0238C1.74957 11.0968 1.68926 11.1842 1.64777 11.2808C1.60628 11.3773 1.58444 11.4812 1.58353 11.5863C1.58261 11.6915 1.60264 11.7957 1.64245 11.893C1.68225 11.9903 1.74104 12.0787 1.81537 12.153C1.8897 12.2273 1.97809 12.2861 2.07539 12.3259C2.17268 12.3657 2.27693 12.3858 2.38204 12.3849C2.48716 12.3839 2.59104 12.3621 2.68763 12.3206C2.78421 12.2791 2.87157 12.2188 2.9446 12.1432L7.13489 7.95291L8.55435 9.37237C8.70281 9.52079 8.90414 9.60416 9.11406 9.60416C9.32398 9.60416 9.52531 9.52079 9.67377 9.37237L14.2599 4.78625V6.8335C14.2599 7.04346 14.3433 7.24482 14.4918 7.39329C14.6402 7.54176 14.8416 7.62516 15.0516 7.62516C15.2615 7.62516 15.4629 7.54176 15.6114 7.39329C15.7598 7.24482 15.8432 7.04346 15.8432 6.8335V2.87516ZM15.4316 9.07629C15.6295 8.87837 15.5622 8.5435 15.2883 8.48333C14.7207 8.35896 14.1299 8.39311 13.5804 8.58203C13.031 8.77094 12.5441 9.10735 12.173 9.55445C11.8019 10.0015 11.5609 10.5421 11.4765 11.1169C11.392 11.6918 11.4673 12.2788 11.6941 12.8137L8.73247 15.7762C8.51616 16.0001 8.39647 16.3001 8.39917 16.6115C8.40188 16.9228 8.52677 17.2207 8.74694 17.4408C8.96711 17.661 9.26495 17.7859 9.57631 17.7886C9.88767 17.7913 10.1876 17.6716 10.4116 17.4553L13.374 14.4937C13.909 14.7205 14.496 14.7957 15.0708 14.7113C15.6457 14.6268 16.1862 14.3859 16.6333 14.0148C17.0804 13.6437 17.4168 13.1568 17.6057 12.6073C17.7947 12.0579 17.8288 11.4671 17.7044 10.8995C17.6443 10.6248 17.3094 10.5575 17.1107 10.7554L15.7308 12.1377C15.5081 12.3604 15.2061 12.4856 14.8911 12.4857C14.5762 12.4858 14.2741 12.3607 14.0513 12.1381C13.8285 11.9154 13.7033 11.6134 13.7032 11.2984C13.7032 10.9834 13.8282 10.6813 14.0509 10.4585L15.4324 9.07708L15.4316 9.07629Z" fill="#283C7C"/>
</svg>
