<svg width="36" height="36" viewBox="0 0 36 36" fill="none" xmlns="http://www.w3.org/2000/svg">
<rect x="0.5" y="0.5" width="35" height="35" rx="17.5" fill="white"/>
<rect x="0.5" y="0.5" width="35" height="35" rx="17.5" stroke="#9CA1AA"/>
<path d="M10.5 14.6641L20.5 14.6641M20.5 14.6641C20.5 16.0448 21.6193 17.1641 23 17.1641C24.3807 17.1641 25.5 16.0448 25.5 14.6641C25.5 13.2834 24.3807 12.1641 23 12.1641C21.6193 12.1641 20.5 13.2834 20.5 14.6641ZM15.5 21.3307L25.5 21.3307M15.5 21.3307C15.5 22.7114 14.3807 23.8307 13 23.8307C11.6193 23.8307 10.5 22.7114 10.5 21.3307C10.5 19.95 11.6193 18.8307 13 18.8307C14.3807 18.8307 15.5 19.95 15.5 21.3307Z" stroke="#4C515B" stroke-width="1.5" stroke-linecap="round" stroke-linejoin="round"/>
</svg>
