<svg width="60" height="60" viewBox="0 0 60 60" fill="none"
  xmlns="http://www.w3.org/2000/svg">
  <rect width="60" height="60" fill="#e1ecff"/>
  <path d="M36.9 20.8C36.9 22.63 36.173 24.3851 34.879 25.6791C33.585 26.9731 31.83 27.7 30 27.7C28.17 27.7 26.415 26.9731 25.121 25.6791C23.827 24.3851 23.1 22.63 23.1 20.8C23.1 18.97 23.827 17.215 25.121 15.921C26.415 14.627 28.17 13.9 30 13.9C31.83 13.9 33.585 14.627 34.879 15.921C36.173 17.215 36.9 18.97 36.9 20.8ZM48.4 25.4C48.4 26.62 47.9153 27.79 47.0527 28.6527C46.19 29.5154 45.02 30 43.8 30C42.58 30 41.41 29.5154 40.5473 28.6527C39.6846 27.79 39.2 26.62 39.2 25.4C39.2 24.18 39.6846 23.01 40.5473 22.1473C41.41 21.2847 42.58 20.8 43.8 20.8C45.02 20.8 46.19 21.2847 47.0527 22.1473C47.9153 23.01 48.4 24.18 48.4 25.4ZM39.2 41.5C39.2 39.06 38.2307 36.72 36.5054 34.9946C34.78 33.2693 32.44 32.3 30 32.3C27.56 32.3 25.2199 33.2693 23.4946 34.9946C21.7693 36.72 20.8 39.06 20.8 41.5V48.4H39.2V41.5ZM20.8 25.4C20.8 26.62 20.3153 27.79 19.4527 28.6527C18.59 29.5154 17.42 30 16.2 30C14.98 30 13.81 29.5154 12.9473 28.6527C12.0846 27.79 11.6 26.62 11.6 25.4C11.6 24.18 12.0846 23.01 12.9473 22.1473C13.81 21.2847 14.98 20.8 16.2 20.8C17.42 20.8 18.59 21.2847 19.4527 22.1473C20.3153 23.01 20.8 24.18 20.8 25.4ZM43.8 48.4V41.5C43.8033 39.1616 43.2096 36.861 42.075 34.8162C43.0947 34.5553 44.1605 34.5307 45.1912 34.7443C46.2218 34.9579 47.1901 35.4041 48.0221 36.0488C48.854 36.6936 49.5278 37.5198 49.9919 38.4645C50.456 39.4092 50.6982 40.4475 50.7 41.5V48.4H43.8ZM17.925 34.8162C16.7905 36.861 16.1968 39.1616 16.2 41.5V48.4H9.29999V41.5C9.29955 40.4467 9.54025 39.4073 10.0037 38.4614C10.4671 37.5155 11.1409 36.6883 11.9735 36.0431C12.806 35.3979 13.7753 34.9519 14.8069 34.7392C15.8385 34.5266 16.9051 34.5529 17.925 34.8162Z" fill="#599cff"/>
</svg>
