<svg width="34" height="34" viewBox="0 0 34 34" fill="none" xmlns="http://www.w3.org/2000/svg">
<rect width="34" height="34" rx="17" fill="#EE0033"/>
<g clip-path="url(#clip0_4675_133826)">
<mask id="path-2-inside-1_4675_133826" fill="white">
<path d="M25.4035 16.8088C24.7419 15.0974 23.5934 13.6175 22.0998 12.5518C20.6063 11.4861 18.8332 10.8814 16.9998 10.8125C15.1663 10.8814 13.3932 11.4861 11.8997 12.5518C10.4061 13.6175 9.2576 15.0974 8.59601 16.8088C8.55133 16.9323 8.55133 17.0677 8.59601 17.1912C9.2576 18.9026 10.4061 20.3825 11.8997 21.4482C13.3932 22.5139 15.1663 23.1186 16.9998 23.1875C18.8332 23.1186 20.6063 22.5139 22.0998 21.4482C23.5934 20.3825 24.7419 18.9026 25.4035 17.1912C25.4482 17.0677 25.4482 16.9323 25.4035 16.8088ZM16.9998 22.0625C14.0185 22.0625 10.8685 19.8519 9.72664 17C10.8685 14.1481 14.0185 11.9375 16.9998 11.9375C19.981 11.9375 23.131 14.1481 24.2729 17C23.131 19.8519 19.981 22.0625 16.9998 22.0625Z"/>
</mask>
<path d="M25.4035 16.8088C24.7419 15.0974 23.5934 13.6175 22.0998 12.5518C20.6063 11.4861 18.8332 10.8814 16.9998 10.8125C15.1663 10.8814 13.3932 11.4861 11.8997 12.5518C10.4061 13.6175 9.2576 15.0974 8.59601 16.8088C8.55133 16.9323 8.55133 17.0677 8.59601 17.1912C9.2576 18.9026 10.4061 20.3825 11.8997 21.4482C13.3932 22.5139 15.1663 23.1186 16.9998 23.1875C18.8332 23.1186 20.6063 22.5139 22.0998 21.4482C23.5934 20.3825 24.7419 18.9026 25.4035 17.1912C25.4482 17.0677 25.4482 16.9323 25.4035 16.8088ZM16.9998 22.0625C14.0185 22.0625 10.8685 19.8519 9.72664 17C10.8685 14.1481 14.0185 11.9375 16.9998 11.9375C19.981 11.9375 23.131 14.1481 24.2729 17C23.131 19.8519 19.981 22.0625 16.9998 22.0625Z" fill="white"/>
<path d="M25.4035 16.8088L26.8141 16.2987L26.8085 16.2832L26.8026 16.2679L25.4035 16.8088ZM16.9998 10.8125L17.0561 9.31356L16.9998 9.31144L16.9434 9.31356L16.9998 10.8125ZM8.59601 16.8088L7.19692 16.2679L7.19098 16.2832L7.18537 16.2987L8.59601 16.8088ZM8.59601 17.1912L7.18537 17.7013L7.19098 17.7168L7.19692 17.7321L8.59601 17.1912ZM16.9998 23.1875L16.9434 24.6864L16.9998 24.6886L17.0561 24.6864L16.9998 23.1875ZM25.4035 17.1912L26.8026 17.7321L26.8085 17.7168L26.8141 17.7013L25.4035 17.1912ZM9.72664 17L8.33411 16.4424L8.11087 17L8.33411 17.5576L9.72664 17ZM24.2729 17L25.6654 17.5576L25.8887 17L25.6654 16.4424L24.2729 17ZM25.4035 16.8088L26.8026 16.2679C26.0353 14.2831 24.7032 12.5667 22.9711 11.3308L22.0998 12.5518L21.2286 13.7728C22.4835 14.6682 23.4485 15.9117 24.0044 17.3496L25.4035 16.8088ZM22.0998 12.5518L22.9711 11.3308C21.2389 10.0948 19.1825 9.39352 17.0561 9.31356L16.9998 10.8125L16.9434 12.3114C18.4839 12.3694 19.9737 12.8774 21.2286 13.7728L22.0998 12.5518ZM16.9998 10.8125L16.9434 9.31356C14.817 9.39352 12.7606 10.0948 11.0284 11.3308L11.8997 12.5518L12.7709 13.7728C14.0258 12.8774 15.5156 12.3694 17.0561 12.3114L16.9998 10.8125ZM11.8997 12.5518L11.0284 11.3308C9.29627 12.5667 7.96422 14.2831 7.19692 16.2679L8.59601 16.8088L9.9951 17.3496C10.551 15.9117 11.516 14.6682 12.7709 13.7728L11.8997 12.5518ZM8.59601 16.8088L7.18537 16.2987C7.02154 16.7519 7.02154 17.2481 7.18537 17.7013L8.59601 17.1912L10.0066 16.6813C10.0811 16.8872 10.0811 17.1128 10.0066 17.3187L8.59601 16.8088ZM8.59601 17.1912L7.19692 17.7321C7.96422 19.7169 9.29627 21.4333 11.0284 22.6692L11.8997 21.4482L12.7709 20.2272C11.516 19.3318 10.551 18.0883 9.9951 16.6504L8.59601 17.1912ZM11.8997 21.4482L11.0284 22.6692C12.7606 23.9052 14.817 24.6065 16.9434 24.6864L16.9998 23.1875L17.0561 21.6886C15.5156 21.6306 14.0258 21.1226 12.7709 20.2272L11.8997 21.4482ZM16.9998 23.1875L17.0561 24.6864C19.1825 24.6065 21.2389 23.9052 22.9711 22.6692L22.0998 21.4482L21.2286 20.2272C19.9737 21.1226 18.4839 21.6306 16.9434 21.6886L16.9998 23.1875ZM22.0998 21.4482L22.9711 22.6692C24.7032 21.4333 26.0353 19.7169 26.8026 17.7321L25.4035 17.1912L24.0044 16.6504C23.4485 18.0883 22.4835 19.3318 21.2286 20.2272L22.0998 21.4482ZM25.4035 17.1912L26.8141 17.7013C26.978 17.2481 26.978 16.7519 26.8141 16.2987L25.4035 16.8088L23.9929 17.3187C23.9184 17.1128 23.9184 16.8872 23.9929 16.6813L25.4035 17.1912ZM16.9998 22.0625V20.5625C14.6658 20.5625 12.0461 18.7574 11.1192 16.4424L9.72664 17L8.33411 17.5576C9.69097 20.9464 13.3713 23.5625 16.9998 23.5625V22.0625ZM9.72664 17L11.1192 17.5576C12.0461 15.2426 14.6658 13.4375 16.9998 13.4375V11.9375V10.4375C13.3713 10.4375 9.69097 13.0536 8.33411 16.4424L9.72664 17ZM16.9998 11.9375V13.4375C19.3338 13.4375 21.9535 15.2426 22.8804 17.5576L24.2729 17L25.6654 16.4424C24.3086 13.0536 20.6283 10.4375 16.9998 10.4375V11.9375ZM24.2729 17L22.8804 16.4424C21.9535 18.7574 19.3338 20.5625 16.9998 20.5625V22.0625V23.5625C20.6283 23.5625 24.3086 20.9464 25.6654 17.5576L24.2729 17Z" fill="white" mask="url(#path-2-inside-1_4675_133826)"/>
<path d="M17 13.625C16.3325 13.625 15.68 13.8229 15.125 14.1938C14.5699 14.5646 14.1374 15.0917 13.8819 15.7084C13.6265 16.3251 13.5596 17.0037 13.6899 17.6584C13.8201 18.3131 14.1415 18.9145 14.6135 19.3865C15.0855 19.8585 15.6869 20.1799 16.3416 20.3102C16.9963 20.4404 17.6749 20.3735 18.2916 20.1181C18.9083 19.8626 19.4354 19.4301 19.8062 18.875C20.1771 18.32 20.375 17.6675 20.375 17C20.375 16.1049 20.0194 15.2464 19.3865 14.6135C18.7536 13.9806 17.8951 13.625 17 13.625ZM17 19.25C16.555 19.25 16.12 19.118 15.75 18.8708C15.38 18.6236 15.0916 18.2722 14.9213 17.861C14.751 17.4499 14.7064 16.9975 14.7932 16.561C14.8801 16.1246 15.0943 15.7237 15.409 15.409C15.7237 15.0943 16.1246 14.88 16.561 14.7932C16.9975 14.7064 17.4499 14.751 17.861 14.9213C18.2722 15.0916 18.6236 15.38 18.8708 15.75C19.118 16.12 19.25 16.555 19.25 17C19.25 17.5967 19.0129 18.169 18.591 18.591C18.169 19.0129 17.5967 19.25 17 19.25Z" fill="white"/>
</g>
<defs>
<clipPath id="clip0_4675_133826">
<rect width="18" height="18" fill="white" transform="translate(8 8)"/>
</clipPath>
</defs>
</svg>
