<svg class="login-type-icon" width="52" height="52" viewBox="0 0 52 52" xmlns="http://www.w3.org/2000/svg"><path d="M25.9922 5.2C29.7362 5.2 32.9238 7.826 33.6466 11.4452C33.6867 11.615 33.6922 11.7912 33.6628 11.9631C33.6333 12.1351 33.5696 12.2994 33.4753 12.4463C33.381 12.5931 33.2582 12.7194 33.114 12.8178C32.9699 12.9161 32.8074 12.9844 32.6363 13.0186C32.4653 13.0528 32.289 13.0523 32.1182 13.0169C31.9473 12.9816 31.7853 12.9122 31.6418 12.813C31.4983 12.7137 31.3762 12.5865 31.2829 12.4391C31.1896 12.2917 31.1269 12.127 31.0986 11.9548C30.8597 10.7779 30.2197 9.72037 29.288 8.96267C28.3563 8.20497 27.1905 7.79404 25.9896 7.8C23.2466 7.8 20.9976 9.9242 20.8 12.6178L20.7844 13.0078V18.2H36.4C37.7791 18.2 39.1018 18.7479 40.077 19.723C41.0522 20.6982 41.6 22.0209 41.6 23.4V41.6C41.6 42.9791 41.0522 44.3018 40.077 45.277C39.1018 46.2521 37.7791 46.8 36.4 46.8H15.6C14.2209 46.8 12.8983 46.2521 11.9231 45.277C10.9479 44.3018 10.4 42.9791 10.4 41.6V23.4C10.4 22.0209 10.9479 20.6982 11.9231 19.723C12.8983 18.7479 14.2209 18.2 15.6 18.2H18.187V13.0052C18.187 10.9351 19.0094 8.94985 20.4731 7.48609C21.9369 6.02233 23.9222 5.2 25.9922 5.2V5.2ZM36.4 20.8H15.6C14.9105 20.8 14.2491 21.0739 13.7615 21.5615C13.274 22.0491 13 22.7104 13 23.4V41.6C13 42.2896 13.274 42.9509 13.7615 43.4385C14.2491 43.9261 14.9105 44.2 15.6 44.2H36.4C37.0896 44.2 37.7509 43.9261 38.2385 43.4385C38.7261 42.9509 39 42.2896 39 41.6V23.4C39 22.7104 38.7261 22.0491 38.2385 21.5615C37.7509 21.0739 37.0896 20.8 36.4 20.8ZM26 29.9C26.6896 29.9 27.3509 30.1739 27.8385 30.6615C28.3261 31.1491 28.6 31.8104 28.6 32.5C28.6 33.1896 28.3261 33.8509 27.8385 34.3385C27.3509 34.8261 26.6896 35.1 26 35.1C25.3105 35.1 24.6491 34.8261 24.1615 34.3385C23.674 33.8509 23.4 33.1896 23.4 32.5C23.4 31.8104 23.674 31.1491 24.1615 30.6615C24.6491 30.1739 25.3105 29.9 26 29.9V29.9Z"></path></svg>